<?xml version="1.0" encoding="utf-8"?>
<!-- Generator: Adobe Illustrator 24.3.0, SVG Export Plug-In . SVG Version: 6.00 Build 0)  -->
<svg version="1.1" id="Capa_1" xmlns="http://www.w3.org/2000/svg" xmlns:xlink="http://www.w3.org/1999/xlink" x="0px" y="0px"
	 viewBox="0 0 97.2 103.1" style="enable-background:new 0 0 97.2 103.1;" xml:space="preserve">
<style type="text/css">
	.st0{fill:#FFFFFF;stroke:#232323;stroke-width:6;stroke-miterlimit:10;}
	.st1{fill:#FFFFFF;}
	.st2{fill:#EA3B3B;}
</style>
<g>
	<path class="st0" d="M66.6,58.1c-0.4-0.7-1.2-1.1-2.1-0.9L64,57.3c-4.8,1.8-29.4-2.6-38.1-14.8c-0.5-0.7-1.5-0.9-2.2-0.4l-1,0.8
		c-0.3,0.2-17,12.2-15.6,29.3c0.7,9,5.9,16.2,13.9,19.1c3.3,1.3,6.9,1.5,10.3,0.5c1-0.3,1.3-1.6,0.6-2.4c-5-5.5-7.2-13.1-7.4-20.4
		c0-0.9,0.7-1.6,1.5-1.8c0.1,0,0.2,0,0.3,0c1,0,1.8,0.9,1.8,1.9c0,0.9-0.1,21,18.2,24.1c10,1.7,15.9-2.7,19-6.7
		C71.7,78.3,72,66.8,66.6,58.1z"/>
	<path class="st0" d="M87.4,26.4C87.4,26.4,87.4,26.4,87.4,26.4L87.4,26.4c0,0-2.7-0.6-4.1-0.6C81,22.6,72.3,12,57.8,12
		c-6.6-0.1-13,2.1-18.1,6.4c-3,2.2-5.3,5.1-7,8.4c-5-0.1-8.5,5.2-7.1,9.8c0.2,0.6,0.4,1.1,0.7,1.7c0,0,0,0,0,0
		c4.3,7.8,14.6,11.6,18.3,13.1c13.9,5.2,21.8,2.6,22,2.5l0.2-0.1c-0.6-0.9-1.1-1.6-1.8-2.5c0,0,0,0,0,0c-2.1-2.7-4.5-5.3-7-7.7
		c0,0,0,0,0,0c2.5,2.4,4.9,4.9,7,7.7c1.9-0.3,3.8-1.5,4.3-2.9c0.1-0.3,0.2-0.5,0.2-0.8c-0.2,2-2.2,3.3-4.5,3.8
		c0.6,0.8,1.2,1.6,1.7,2.5c2.6-0.9,4.6-2.2,5.2-4.3c1-3,0.3-6.4-1.8-8.8c-1.3-1.8-1-4.9-0.8-6.1c0.1-1.9,1.1-3.7,2.6-4.9
		c1.5-0.8,4.1-0.1,5.6,0.5c0,0.2-0.5,1-0.6,1.1c-1.6,4.2,0.5,8.9,4.7,10.5C91.9,45,97.4,30.5,87.4,26.4z M56.9,13.6
		C56.9,13.6,56.9,13.6,56.9,13.6C56.9,13.6,56.9,13.6,56.9,13.6z M37.8,31.3C37.8,31.3,37.8,31.3,37.8,31.3
		c-0.3-0.2-0.5-0.5-0.8-0.7C37.3,30.9,37.5,31.1,37.8,31.3z M28.7,36.5C28.7,36.5,28.7,36.5,28.7,36.5c-0.1-0.2-0.2-0.5-0.3-0.8
		c-0.2-0.9-0.2-1.9,0.1-2.8c-0.3,0.9-0.3,1.8-0.1,2.8C28.4,35.9,28.6,36.2,28.7,36.5c2-1.4,4-2.7,6.1-3.8c0,0,0,0,0,0
		C32.7,33.8,30.7,35,28.7,36.5c3.4,7.3,16.6,12,16.8,12C45.3,48.4,32,43.8,28.7,36.5z M34.9,32.6C34.9,32.6,34.9,32.6,34.9,32.6
		c5.1,4.8,11.4,8.2,18.2,10C46.3,40.8,40,37.4,34.9,32.6z M60.7,51.6c-2.3,0-5.4-0.3-9.1-1.2C55.3,51.3,58.4,51.6,60.7,51.6z
		 M54.8,40.1c-0.4-0.1-0.7-0.2-1-0.3l0,0C54.1,39.9,54.5,40,54.8,40.1c1.1,0.2,2.2,0.4,3.4,0.6C57,40.6,55.9,40.4,54.8,40.1z
		 M61.1,41c0.6,0,1.1,0.1,1.7,0.1C62.2,41,61.7,41,61.1,41z M67.1,34.4c0.2-3.1,1.4-5.3,3.4-6.4C68.6,29.1,67.4,31.2,67.1,34.4z
		 M74,27.1c0.4,0,0.8,0,1.2,0.1C74.8,27.1,74.4,27.1,74,27.1z M77.6,27.7c0.5,0.2,1,0.3,1.3,0.5l0,0C78.6,28,78.1,27.9,77.6,27.7z
		 M76.1,27.3c0.3,0.1,0.5,0.1,0.8,0.2C76.7,27.5,76.4,27.4,76.1,27.3z M82.8,38.8c-2.7-1-4.1-4-3.1-6.8c0,0,0,0,0,0
		c-2.2,6.6,7.2,10.1,9.8,3.7C88.6,38.5,85.5,39.9,82.8,38.8z"/>
</g>
<g>
	<path class="st1" d="M43.4,54.1l-0.9-0.3c-2.7-1-12.5-5.2-16.6-11.3c-0.4-0.7-1.4-0.9-2.1-0.5c0,0-0.1,0.1-0.1,0.1l-1,0.8
		c-0.3,0.2-17,12.2-15.6,29.3c0.7,9,5.9,16.2,13.9,19.1c3.3,1.3,6.9,1.5,10.3,0.5c0.8-0.3,1.2-1.1,0.9-1.9c-0.1-0.2-0.2-0.4-0.3-0.5
		c-2.1-2.3-3.8-5.1-4.9-8c-1.6-4-2.4-8.2-2.5-12.4c0-0.9,0.7-1.6,1.5-1.8c0.1,0,0.2,0,0.4,0c1,0,1.8,0.9,1.8,1.9c0,0,0,0,0,0l0,0
		c0,0.9-0.1,21,18.2,24.1l0,0c10,1.7,15.9-2.7,19-6.7c5.3-7.1,6.4-16.5,3-24.8c-0.5-1.3-1.2-2.5-1.9-3.7c-0.4-0.7-1.2-1.1-2.1-0.9
		L64,57.3C64,57.3,57.1,59.1,43.4,54.1z"/>
	<path class="st2" d="M56.9,13.6c-6.1,0.3-11.9,2.6-16.5,6.6c-2.6,2-4.7,4.6-6.2,7.5c1.1,1.3,2.3,2.6,3.6,3.7c0,0,0,0,0,0
		c4.6,3.9,10,6.8,15.8,8.4c0,0,0.1,0.1,0.1,0.1c0.4,0.1,0.8,0.2,1.2,0.3c4.2,0.9,8.5,1.1,12.8,0.7c-0.5-2.1-0.7-4.3-0.5-6.4
		c0.2-3.1,1.4-5.3,3.4-6.5c2.9-1.6,6.6-0.5,8.4,0.3c0.7-0.7,1.5-1.3,2.4-1.7C78.3,22.7,69.3,13.3,56.9,13.6z"/>
	<path class="st1" d="M87.4,26.4C87.4,26.4,87.4,26.4,87.4,26.4L87.4,26.4L87.4,26.4c-1.3-0.5-2.7-0.7-4.1-0.6
		C81,22.6,72.3,12,57.8,12c-6.6-0.1-13,2.1-18.1,6.4c-3,2.2-5.3,5.1-7,8.4c-2.7,0-5.1,1.5-6.4,3.8c-1,1.8-1.3,4-0.7,6
		c0.2,0.6,0.4,1.1,0.7,1.7c0,0,0,0,0,0c3.8,7.2,14.5,11.7,17.4,12.7l0.9,0.4c13.9,5.2,21.8,2.7,22,2.5l0.2-0.1c0,0,0,0,0-0.1l0,0
		c0,0,0.1,0.1,0.1,0.1c2.6-0.9,4.5-2.3,5.1-4.4c1-3,0.3-6.4-1.8-8.8c-1.3-1.8-1-4.9-0.8-6.1c0.1-1.9,1.1-3.7,2.6-4.9
		c1.5-0.8,4.1-0.1,5.6,0.5c0,0.2-0.5,1-0.6,1.1c-1.6,4.2,0.5,8.9,4.7,10.5s8.9-0.5,10.5-4.7C93.8,32.7,91.6,28,87.4,26.4z
		 M78.9,28.2c-1.8-0.7-5.5-1.9-8.4-0.3c-2,1.1-3.2,3.3-3.4,6.5c-0.2,2.1,0,4.3,0.5,6.4c-4.3,0.5-8.6,0.2-12.8-0.7
		c-0.4-0.1-0.7-0.2-1-0.3c0,0-0.1-0.1-0.1-0.1c-5.8-1.6-11.3-4.5-15.9-8.5c0,0,0,0-0.1,0c-1.3-1.1-2.4-2.3-3.5-3.7
		c1.5-2.9,3.6-5.4,6.2-7.5c4.6-4,10.4-6.3,16.4-6.6c12.4-0.3,21.3,9.1,24.4,12.9C80.4,26.9,79.6,27.5,78.9,28.2z M82.8,38.8
		c-2.7-1-4.1-4-3.1-6.8c0,0,0,0,0,0C78.7,34.8,80.1,37.8,82.8,38.8c2.7,1,5.7-0.4,6.8-3.1C88.5,38.5,85.5,39.9,82.8,38.8z"/>
</g>
</svg>
