<svg xmlns="http://www.w3.org/2000/svg" xmlns:xlink="http://www.w3.org/1999/xlink" viewBox="0 0 46.78 35.05"><defs><style>.cls-1{fill:url(#Degradado_sin_nombre_6);}</style><linearGradient id="Degradado_sin_nombre_6" y1="17.52" x2="46.78" y2="17.52" gradientUnits="userSpaceOnUse"><stop offset="0" stop-color="#65529b"/><stop offset="1" stop-color="#86b8d0"/></linearGradient></defs><g id="Capa_2" data-name="Capa 2"><g id="Capa_1-2" data-name="Capa 1"><path class="cls-1" d="M10.6,17h0a.07.07,0,0,0,0,.06c0,5.82,0,11.65,0,17.47,0,.45-.11.57-.57.57-2.19,0-4.39,0-6.58,0A3.19,3.19,0,0,1,.06,32.45s0,0-.06-.06V3.93c.16-.09.13-.26.16-.4A4.78,4.78,0,0,1,7.36.78c1.12.74,2.16,1.61,3.24,2.42ZM46.68,3.75a4.77,4.77,0,0,0-7.16-3,36.92,36.92,0,0,0-3.36,2.49l-.45.31-12,9a.48.48,0,0,1-.7,0C21.11,11,19.16,9.58,17.22,8.13L10.6,3.2V17a.07.07,0,0,0,0,.06l.52.37q6,4.46,11.9,8.92a.47.47,0,0,0,.69,0c1.27-1,2.55-1.92,3.83-2.88L36.15,17c0,.12,0,.24,0,.37V34.6c0,.25,0,.45.35.44,2.39,0,4.78,0,7.17,0a3.16,3.16,0,0,0,2.93-2.15c0-.14,0-.31.17-.4V4C46.65,4,46.7,3.84,46.68,3.75Z"/></g></g></svg>