<svg id="Capa_1" data-name="Capa 1" xmlns="http://www.w3.org/2000/svg" viewBox="0 0 48 48"><path d="M23.39,39.48c4.57-4.57,9.18-9.08,14-13.87a2.39,2.39,0,0,0,0-3.4L25.86,10.71C25,9.83,24.09,8.92,23.18,8c-1.53-1.49-2.6-3.2-.84-5,2-2.07,3.7-.75,5.27.83q4.73,4.76,9.49,9.48c2.51,2.52,5,5.08,7.55,7.53,2.24,2.13,2.09,4-.07,6.12C38.46,33,32.42,39.15,26.35,45.26a2.38,2.38,0,0,1-3.37,0C20.79,43.1,20.92,42,23.39,39.48Z"/><path d="M4.35,39.48c4.57-4.57,9.19-9.08,14.05-13.87a2.39,2.39,0,0,0,0-3.4L6.82,10.71C5.93,9.83,5.05,8.92,4.15,8c-1.54-1.49-2.6-3.2-.84-5,2-2.07,3.7-.75,5.27.83q4.72,4.76,9.48,9.48c2.51,2.52,5,5.08,7.55,7.53,2.25,2.13,2.1,4-.06,6.12C19.42,33,13.39,39.15,7.32,45.26a2.38,2.38,0,0,1-3.37,0C1.76,43.1,1.89,42,4.35,39.48Z"/></svg>