<svg id="Capa_1" data-name="Capa 1" xmlns="http://www.w3.org/2000/svg" viewBox="0 0 48 48"><path d="M25.27,8.41c-4.56,4.56-9.18,9.08-14,13.87a2.39,2.39,0,0,0,0,3.4L22.8,37.17c.9.89,1.78,1.8,2.68,2.68,1.53,1.48,2.6,3.2.84,5-2,2.07-3.7.75-5.27-.83q-4.73-4.76-9.48-9.48c-2.52-2.52-5-5.08-7.56-7.53-2.24-2.13-2.09-4,.07-6.12C10.2,14.89,16.24,8.74,22.31,2.63a2.39,2.39,0,0,1,3.37,0C27.87,4.78,27.74,5.94,25.27,8.41Z"/><path d="M44.31,8.41c-4.57,4.56-9.19,9.08-14,13.87a2.39,2.39,0,0,0,0,3.4L41.84,37.17c.89.89,1.77,1.8,2.68,2.68,1.53,1.48,2.59,3.2.84,5-2,2.07-3.7.75-5.28-.83q-4.72-4.76-9.48-9.48c-2.51-2.52-5-5.08-7.55-7.53-2.25-2.13-2.09-4,.06-6.12,6.13-6.05,12.17-12.2,18.23-18.31a2.41,2.41,0,0,1,3.38,0C46.91,4.78,46.78,5.94,44.31,8.41Z"/></svg>