<svg id="Capa_1" data-name="Capa 1" xmlns="http://www.w3.org/2000/svg" viewBox="0 0 43.84 43.82"><defs><style>.cls-1{fill:#fff;}</style></defs><path class="cls-1" d="M-196.29,361.5H-199l-1.61-.19a21.23,21.23,0,0,1-8.89-3.3,21.57,21.57,0,0,1-9.62-14.1c-.2-1-.29-2-.43-3v-2.74l.09-.54c.23-1.32.35-2.66.71-3.95a21.31,21.31,0,0,1,7.39-11.23,21.59,21.59,0,0,1,16.71-4.63,20.49,20.49,0,0,1,8.79,3.23,21.42,21.42,0,0,1,10,16,20.88,20.88,0,0,1-2.59,13.15,21.54,21.54,0,0,1-14.88,10.86C-194.34,361.29-195.32,361.36-196.29,361.5Zm2.29-23.31.15-.09a3.28,3.28,0,0,0,.27.38l4.81,4.81a1.82,1.82,0,0,0,2.88,0l2.3-2.3a1.87,1.87,0,0,0,0-2.86l-12.63-12.62a1.86,1.86,0,0,0-2.86,0l-12.65,12.65a1.85,1.85,0,0,0,0,2.83c.74.75,1.49,1.5,2.24,2.24a1.89,1.89,0,0,0,3,0l4.79-4.78.38-.36v14a1.91,1.91,0,0,0,2.17,2.15h3A1.92,1.92,0,0,0-194,352V338.19Z" transform="translate(219.58 -317.68)"/></svg>