<svg width="60" height="46" viewBox="0 0 60 46" fill="none" xmlns="http://www.w3.org/2000/svg">
<path d="M4.21508 45.2165H13.7221V22.1952L0.140625 12.0388V41.154C0.140625 43.4019 1.96734 45.2165 4.21508 45.2165Z" fill="#4285F4"/>
<path d="M46.3184 45.2165H55.8254C58.0802 45.2165 59.8999 43.3951 59.8999 41.154V12.0388L46.3184 22.1952" fill="#34A853"/>
<path d="M46.3184 4.5907V22.1952L59.8999 12.0388V6.62201C59.8999 1.59794 54.1482 -1.26618 50.1213 1.7469" fill="#FBBC04"/>
<path d="M13.7227 22.1953V4.59082L30.0205 16.7785L46.3182 4.59082V22.1953L30.0205 34.3831" fill="#EA4335"/>
<path d="M0.140625 6.62201V12.0388L13.7221 22.1952V4.5907L9.91933 1.7469C5.88562 -1.26618 0.140625 1.59794 0.140625 6.62201Z" fill="#C5221F"/>
</svg>
