<svg width="55" height="59" viewBox="0 0 55 59" fill="none" xmlns="http://www.w3.org/2000/svg">
<rect x="0.630859" y="0.146484" width="54.1139" height="58.1613" rx="6" fill="url(#paint0_radial_109_31)"/>
<rect x="0.630859" y="0.146484" width="54.1139" height="58.1613" rx="6" fill="url(#paint1_radial_109_31)"/>
<rect x="0.630859" y="0.146484" width="54.1139" height="58.1613" rx="6" fill="url(#paint2_radial_109_31)"/>
<path d="M41.2162 17.8024C41.2162 19.5232 39.9183 20.9182 38.3172 20.9182C36.7162 20.9182 35.4183 19.5232 35.4183 17.8024C35.4183 16.0816 36.7162 14.6867 38.3172 14.6867C39.9183 14.6867 41.2162 16.0816 41.2162 17.8024Z" fill="white"/>
<path fill-rule="evenodd" clip-rule="evenodd" d="M27.6877 39.6129C33.0245 39.6129 37.3509 34.963 37.3509 29.227C37.3509 23.491 33.0245 18.841 27.6877 18.841C22.3509 18.841 18.0245 23.491 18.0245 29.227C18.0245 34.963 22.3509 39.6129 27.6877 39.6129ZM27.6877 35.4586C30.8898 35.4586 33.4856 32.6686 33.4856 29.227C33.4856 25.7854 30.8898 22.9954 27.6877 22.9954C24.4856 22.9954 21.8898 25.7854 21.8898 29.227C21.8898 32.6686 24.4856 35.4586 27.6877 35.4586Z" fill="white"/>
<path fill-rule="evenodd" clip-rule="evenodd" d="M8.36133 28.3961C8.36133 21.4161 8.36133 17.9261 9.6252 15.2601C10.7369 12.915 12.5109 11.0084 14.6928 9.81348C17.1732 8.45508 20.4204 8.45508 26.9147 8.45508H28.4608C34.955 8.45508 38.2022 8.45508 40.6827 9.81348C42.8646 11.0084 44.6385 12.915 45.7502 15.2601C47.0141 17.9261 47.0141 21.4161 47.0141 28.3961V30.0579C47.0141 37.0379 47.0141 40.5279 45.7502 43.1939C44.6385 45.539 42.8646 47.4456 40.6827 48.6405C38.2022 49.9989 34.955 49.9989 28.4608 49.9989H26.9147C20.4204 49.9989 17.1732 49.9989 14.6928 48.6405C12.5109 47.4456 10.7369 45.539 9.6252 43.1939C8.36133 40.5279 8.36133 37.0379 8.36133 30.0579V28.3961ZM26.9147 12.6095H28.4608C31.7717 12.6095 34.0224 12.6127 35.7621 12.7655C37.4567 12.9143 38.3233 13.184 38.9279 13.5151C40.3825 14.3116 41.5651 15.5827 42.3062 17.1461C42.6143 17.7959 42.8652 18.7273 43.0037 20.5486C43.1458 22.4185 43.1488 24.8376 43.1488 28.3961V30.0579C43.1488 33.6164 43.1458 36.0355 43.0037 37.9053C42.8652 39.7267 42.6143 40.6581 42.3062 41.3078C41.5651 42.8712 40.3825 44.1423 38.9279 44.9389C38.3233 45.27 37.4567 45.5397 35.7621 45.6885C34.0224 45.8413 31.7717 45.8445 28.4608 45.8445H26.9147C23.6037 45.8445 21.353 45.8413 19.6133 45.6885C17.9187 45.5397 17.0521 45.27 16.4476 44.9389C14.993 44.1423 13.8103 42.8712 13.0692 41.3078C12.7612 40.6581 12.5102 39.7267 12.3718 37.9053C12.2296 36.0355 12.2266 33.6164 12.2266 30.0579V28.3961C12.2266 24.8376 12.2296 22.4185 12.3718 20.5486C12.5102 18.7273 12.7612 17.7959 13.0692 17.1461C13.8103 15.5827 14.993 14.3116 16.4476 13.5151C17.0521 13.184 17.9187 12.9143 19.6133 12.7655C21.353 12.6127 23.6037 12.6095 26.9147 12.6095Z" fill="white"/>
<defs>
<radialGradient id="paint0_radial_109_31" cx="0" cy="0" r="1" gradientUnits="userSpaceOnUse" gradientTransform="translate(19.9572 43.7675) rotate(-57.2823) scale(51.8468 50.4258)">
<stop stop-color="#B13589"/>
<stop offset="0.79309" stop-color="#C62F94"/>
<stop offset="1" stop-color="#8A3AC8"/>
</radialGradient>
<radialGradient id="paint1_radial_109_31" cx="0" cy="0" r="1" gradientUnits="userSpaceOnUse" gradientTransform="translate(18.0246 60.385) rotate(-66.676) scale(46.3719 44.1945)">
<stop stop-color="#E0E8B7"/>
<stop offset="0.444662" stop-color="#FB8A2E"/>
<stop offset="0.71474" stop-color="#E2425C"/>
<stop offset="1" stop-color="#E2425C" stop-opacity="0"/>
</radialGradient>
<radialGradient id="paint2_radial_109_31" cx="0" cy="0" r="1" gradientUnits="userSpaceOnUse" gradientTransform="translate(-2.2681 2.22367) rotate(-8.72915) scale(75.2785 17.2521)">
<stop offset="0.156701" stop-color="#406ADC"/>
<stop offset="0.467799" stop-color="#6A45BE"/>
<stop offset="1" stop-color="#6A45BE" stop-opacity="0"/>
</radialGradient>
</defs>
</svg>
