<svg width="280" height="161" viewBox="0 0 280 161" fill="none" xmlns="http://www.w3.org/2000/svg">
<path d="M155.73 160.449H152.619V158.237H152.564C151.587 159.933 150.154 160.781 148.264 160.781C146.873 160.781 145.78 160.403 144.988 159.648C144.204 158.892 143.812 157.892 143.812 156.647C143.812 153.974 145.352 152.417 148.43 151.974L152.633 151.38C152.633 149.361 151.675 148.352 149.757 148.352C148.071 148.352 146.55 148.933 145.195 150.094V147.288C146.688 146.403 148.412 145.96 150.366 145.96C153.942 145.96 155.73 147.721 155.73 151.242V160.449ZM152.633 153.495L149.661 153.91C148.739 154.03 148.043 154.256 147.573 154.587C147.112 154.91 146.882 155.481 146.882 156.302C146.882 156.901 147.094 157.394 147.518 157.781C147.951 158.159 148.527 158.348 149.246 158.348C150.223 158.348 151.029 158.007 151.665 157.325C152.311 156.634 152.633 155.767 152.633 154.726V153.495Z" fill="#CF6467"/>
<path d="M158.772 160.007V157.035C159.97 157.947 161.293 158.403 162.74 158.403C164.675 158.403 165.643 157.832 165.643 156.689C165.643 156.366 165.56 156.094 165.394 155.873C165.228 155.643 165.002 155.44 164.717 155.265C164.44 155.09 164.108 154.933 163.721 154.795C163.343 154.657 162.919 154.5 162.449 154.325C161.869 154.094 161.343 153.85 160.873 153.592C160.412 153.334 160.025 153.044 159.712 152.721C159.408 152.389 159.177 152.016 159.021 151.601C158.864 151.186 158.786 150.702 158.786 150.149C158.786 149.467 158.947 148.868 159.269 148.352C159.592 147.827 160.025 147.389 160.569 147.039C161.113 146.679 161.73 146.412 162.422 146.237C163.113 146.052 163.827 145.96 164.565 145.96C165.873 145.96 167.044 146.158 168.076 146.555V149.361C167.081 148.679 165.938 148.338 164.648 148.338C164.242 148.338 163.873 148.38 163.541 148.463C163.219 148.546 162.942 148.661 162.712 148.808C162.482 148.956 162.302 149.136 162.173 149.348C162.044 149.55 161.979 149.776 161.979 150.025C161.979 150.329 162.044 150.587 162.173 150.799C162.302 151.011 162.491 151.2 162.74 151.366C162.998 151.523 163.302 151.67 163.652 151.808C164.012 151.938 164.422 152.08 164.883 152.237C165.491 152.486 166.035 152.739 166.514 152.997C167.002 153.256 167.417 153.55 167.758 153.882C168.099 154.205 168.362 154.583 168.546 155.016C168.731 155.44 168.823 155.947 168.823 156.537C168.823 157.256 168.657 157.882 168.325 158.417C167.993 158.952 167.551 159.394 166.998 159.744C166.445 160.095 165.804 160.353 165.076 160.519C164.357 160.694 163.597 160.781 162.795 160.781C161.246 160.781 159.905 160.523 158.772 160.007Z" fill="#CF6467"/>
<path d="M178.155 160.781C175.971 160.781 174.224 160.122 172.915 158.804C171.616 157.477 170.966 155.721 170.966 153.537C170.966 151.159 171.643 149.301 172.998 147.965C174.362 146.629 176.196 145.96 178.501 145.96C180.713 145.96 182.436 146.61 183.671 147.91C184.906 149.209 185.524 151.011 185.524 153.315C185.524 155.574 184.856 157.385 183.519 158.749C182.192 160.104 180.404 160.781 178.155 160.781ZM178.307 148.518C177.054 148.518 176.063 148.956 175.335 149.831C174.606 150.707 174.242 151.914 174.242 153.454C174.242 154.938 174.611 156.108 175.348 156.965C176.086 157.813 177.072 158.237 178.307 158.237C179.57 158.237 180.538 157.818 181.21 156.979C181.893 156.14 182.234 154.947 182.234 153.398C182.234 151.841 181.893 150.638 181.21 149.79C180.538 148.942 179.57 148.518 178.307 148.518Z" fill="#CF6467"/>
<path d="M198.935 159.8C197.801 160.454 196.46 160.781 194.912 160.781C192.81 160.781 191.114 160.127 189.824 158.818C188.533 157.5 187.888 155.795 187.888 153.703C187.888 151.371 188.579 149.5 189.962 148.089C191.354 146.67 193.211 145.96 195.534 145.96C196.824 145.96 197.962 146.186 198.949 146.638V149.624C197.962 148.887 196.912 148.518 195.796 148.518C194.441 148.518 193.331 148.979 192.464 149.901C191.598 150.813 191.165 152.011 191.165 153.495C191.165 154.961 191.57 156.117 192.381 156.965C193.202 157.813 194.299 158.237 195.672 158.237C196.824 158.237 197.912 157.827 198.935 157.007V159.8Z" fill="#CF6467"/>
<path d="M203.746 143.32C203.221 143.32 202.769 143.149 202.391 142.808C202.022 142.467 201.838 142.034 201.838 141.508C201.838 140.983 202.022 140.545 202.391 140.195C202.769 139.845 203.221 139.67 203.746 139.67C204.29 139.67 204.751 139.845 205.129 140.195C205.506 140.545 205.695 140.983 205.695 141.508C205.695 142.006 205.506 142.435 205.129 142.794C204.751 143.145 204.29 143.32 203.746 143.32ZM205.336 160.449H202.128V146.292H205.336V160.449Z" fill="#CF6467"/>
<path d="M220.406 160.449H217.295V158.237H217.24C216.263 159.933 214.829 160.781 212.94 160.781C211.548 160.781 210.456 160.403 209.663 159.648C208.88 158.892 208.488 157.892 208.488 156.647C208.488 153.974 210.027 152.417 213.106 151.974L217.309 151.38C217.309 149.361 216.35 148.352 214.433 148.352C212.746 148.352 211.226 148.933 209.871 150.094V147.288C211.364 146.403 213.087 145.96 215.041 145.96C218.618 145.96 220.406 147.721 220.406 151.242V160.449ZM217.309 153.495L214.336 153.91C213.415 154.03 212.719 154.256 212.249 154.587C211.788 154.91 211.557 155.481 211.557 156.302C211.557 156.901 211.769 157.394 212.193 157.781C212.627 158.159 213.203 158.348 213.922 158.348C214.899 158.348 215.705 158.007 216.341 157.325C216.986 156.634 217.309 155.767 217.309 154.726V153.495Z" fill="#CF6467"/>
<path d="M234.466 159.8C233.333 160.454 231.992 160.781 230.443 160.781C228.342 160.781 226.646 160.127 225.355 158.818C224.065 157.5 223.42 155.795 223.42 153.703C223.42 151.371 224.111 149.5 225.494 148.089C226.885 146.67 228.743 145.96 231.065 145.96C232.356 145.96 233.494 146.186 234.48 146.638V149.624C233.494 148.887 232.443 148.518 231.328 148.518C229.973 148.518 228.862 148.979 227.996 149.901C227.13 150.813 226.696 152.011 226.696 153.495C226.696 154.961 227.102 156.117 227.913 156.965C228.733 157.813 229.83 158.237 231.203 158.237C232.356 158.237 233.443 157.827 234.466 157.007V159.8Z" fill="#CF6467"/>
<path d="M239.278 143.32C238.752 143.32 238.301 143.149 237.923 142.808C237.554 142.467 237.37 142.034 237.37 141.508C237.37 140.983 237.554 140.545 237.923 140.195C238.301 139.845 238.752 139.67 239.278 139.67C239.821 139.67 240.282 139.845 240.66 140.195C241.038 140.545 241.227 140.983 241.227 141.508C241.227 142.006 241.038 142.435 240.66 142.794C240.282 143.145 239.821 143.32 239.278 143.32ZM240.868 160.449H237.66V146.292H240.868V160.449Z" fill="#CF6467"/>
<path d="M251.347 160.781C249.163 160.781 247.416 160.122 246.107 158.804C244.808 157.477 244.158 155.721 244.158 153.537C244.158 151.159 244.835 149.301 246.19 147.965C247.554 146.629 249.389 145.96 251.693 145.96C253.905 145.96 255.629 146.61 256.864 147.91C258.099 149.209 258.716 151.011 258.716 153.315C258.716 155.574 258.048 157.385 256.712 158.749C255.384 160.104 253.596 160.781 251.347 160.781ZM251.499 148.518C250.246 148.518 249.255 148.956 248.527 149.831C247.799 150.707 247.435 151.914 247.435 153.454C247.435 154.938 247.803 156.108 248.541 156.965C249.278 157.813 250.264 158.237 251.499 158.237C252.762 158.237 253.73 157.818 254.403 156.979C255.085 156.14 255.426 154.947 255.426 153.398C255.426 151.841 255.085 150.638 254.403 149.79C253.73 148.942 252.762 148.518 251.499 148.518ZM255.592 139.075L251.638 143.61H249.26L252.605 139.075H255.592Z" fill="#CF6467"/>
<path d="M274.602 160.449H271.394V152.472C271.394 149.827 270.459 148.504 268.588 148.504C267.611 148.504 266.804 148.873 266.168 149.61C265.532 150.338 265.214 151.26 265.214 152.375V160.449H261.993V146.292H265.214V148.642H265.27C266.329 146.854 267.859 145.96 269.86 145.96C271.399 145.96 272.574 146.463 273.385 147.467C274.196 148.463 274.602 149.905 274.602 151.795V160.449Z" fill="#CF6467"/>
<rect x="0.000976562" y="147.079" width="134.494" height="12.5843" rx="6.29214" fill="#CF6467"/>
<path d="M177.049 10.9394L197.816 7.38018L205.211 3.12555L212.605 4.37575L219.042 1.43076e-05L235.524 0L244.837 7.38018L260.978 19.5905L257.933 28.6498L268.032 34.4179H271.077L274.366 37.5065L280 46.5292L273.142 65.2809H250.217L244.837 44.799L230.801 34.5581L216.999 44.799H197.816L186.354 65.2809H157.814C152.434 59.504 153.627 51.2457 150.632 48.7248C147.638 46.204 162.14 41.8392 161.36 37.5065C166.818 37.769 160.945 29.2801 164.875 28.6498C168.805 28.0196 165.534 22.3477 169.277 19.5905L177.049 10.9394Z" fill="#CF6467"/>
<path d="M0 85.3771C0 84.0436 0.397618 83.0727 1.19285 82.4644C1.98809 81.8562 3.00552 81.552 4.24516 81.552H27.7163C28.301 81.552 29.1548 81.4936 30.2774 81.3766C31.4001 81.2596 32.2188 81.0841 32.7333 80.8502C33.2713 80.8502 33.7858 80.78 34.277 80.6396C34.7916 80.4759 35.3061 80.394 35.8207 80.394C37.4346 80.394 38.6274 80.8268 39.3993 81.6924C40.1945 82.558 40.7792 83.6225 41.1535 84.8858C41.5277 86.1257 41.8902 87.3539 42.2411 88.5705C42.4983 89.4361 42.7907 90.3602 43.1182 91.3427C43.469 92.3253 43.6444 93.2845 43.6444 94.2203C43.6444 95.3198 43.1883 96.1504 42.2761 96.7118C41.3874 97.2733 40.4518 97.5541 39.4694 97.5541C38.4637 97.5541 37.6918 97.3084 37.1539 96.8171C36.6393 96.3258 36.1482 95.6708 35.6804 94.852C34.9085 93.4483 34.2302 92.3487 33.6455 91.5533C33.0842 90.7579 32.3591 90.1964 31.4703 89.8689C30.6049 89.5414 29.3068 89.3776 27.576 89.3776H22.2432V102.256H25.0148C26.1375 102.256 26.9211 101.976 27.3655 101.414C27.8099 100.853 28.1373 100.198 28.3478 99.449C28.5817 98.7004 28.9209 98.0453 29.3653 97.4839C29.833 96.9224 30.64 96.6416 31.786 96.6416C32.745 96.6416 33.5052 96.9107 34.0665 97.4488C34.6512 97.9868 35.0489 98.7004 35.2594 99.5894L37.3995 108.503C37.4463 108.737 37.493 108.994 37.5398 109.275C37.5866 109.532 37.61 109.789 37.61 110.047C37.61 111.076 37.2591 111.907 36.5575 112.538C35.8558 113.17 35.0021 113.486 33.9963 113.486C33.2947 113.486 32.6982 113.31 32.2071 112.959C31.7393 112.585 31.2832 112.152 30.8388 111.661C30.1605 110.889 29.6108 110.339 29.1898 110.012C28.7922 109.684 28.3361 109.485 27.8216 109.415C27.307 109.345 26.5468 109.31 25.5411 109.31H22.2432V116.434C22.2432 118.235 22.7461 119.662 23.7518 120.715C24.7576 121.768 26.1726 122.294 27.997 122.294C29.8681 122.294 31.3066 122.13 32.3123 121.803C33.3414 121.475 34.1835 120.89 34.8384 120.048C35.5166 119.182 36.2768 117.954 37.1188 116.363C37.5632 115.545 38.0427 114.878 38.5572 114.363C39.0718 113.848 39.832 113.591 40.8377 113.591C41.937 113.591 42.896 113.93 43.7146 114.609C44.5566 115.264 44.9776 116.176 44.9776 117.346C44.9776 117.791 44.8957 118.305 44.732 118.89L42.7673 125.803C42.3229 127.371 41.7382 128.692 41.0131 129.769C40.2881 130.821 39.0016 131.348 37.1539 131.348C36.4288 131.348 35.7154 131.254 35.0138 131.067C34.3121 130.903 33.6221 130.74 32.9438 130.576C31.7042 130.272 30.3944 130.12 29.0144 130.12H4.24516C3.00552 130.12 1.98809 129.815 1.19285 129.207C0.397618 128.599 0 127.628 0 126.294C0 125.078 0.245588 124.177 0.736763 123.592C1.25133 123.008 1.83606 122.54 2.49096 122.189C3.14586 121.814 3.7189 121.382 4.21007 120.89C4.72464 120.399 4.98192 119.65 4.98192 118.644V93.0272C4.98192 92.0212 4.72464 91.2726 4.21007 90.7813C3.7189 90.29 3.14586 89.8689 2.49096 89.518C1.83606 89.1437 1.25133 88.664 0.736763 88.0792C0.245588 87.4943 0 86.5936 0 85.3771Z" fill="#CF6467"/>
<path d="M64.8 77.341C65.759 77.341 66.4958 77.6685 67.0103 78.3236C67.5483 78.9786 67.8173 79.7623 67.8173 80.6747V119.557C67.8173 120.235 67.8523 120.902 67.9225 121.557C67.9927 122.189 68.285 122.762 68.7996 123.277C69.4311 123.908 69.9691 124.423 70.4135 124.821C70.8812 125.195 71.1151 125.897 71.1151 126.926C71.1151 127.979 70.7877 128.774 70.1328 129.312C69.4779 129.85 68.6476 130.12 67.6418 130.12H52.2049C51.1992 130.12 50.3688 129.85 49.7139 129.312C49.059 128.774 48.7316 127.979 48.7316 126.926C48.7316 126.037 48.8953 125.394 49.2228 124.996C49.5502 124.575 49.9361 124.212 50.3805 123.908C50.8249 123.604 51.2109 123.183 51.5383 122.645C51.8658 122.083 52.0295 121.206 52.0295 120.013V91.5533C52.0295 90.4303 51.8424 89.6115 51.4681 89.0968C51.0939 88.5822 50.6495 88.1962 50.1349 87.9388C49.6438 87.6581 49.2111 87.3423 48.8368 86.9913C48.4626 86.617 48.2755 86.0204 48.2755 85.2016C48.2755 84.2658 48.5796 83.5406 49.1877 83.0259C49.7958 82.5112 50.4858 82.1018 51.2576 81.7977L59.0813 78.7447C60.0169 78.3704 60.9525 78.0428 61.8881 77.7621C62.8236 77.4813 63.7943 77.341 64.8 77.341Z" fill="#CF6467"/>
<path d="M124.443 98.5717C124.443 101.239 123.788 103.426 122.478 105.134C121.192 106.818 119.519 108.164 117.461 109.17L122.794 119.381C123.308 120.341 123.928 121.089 124.653 121.627C125.378 122.165 126.021 122.762 126.583 123.417C127.144 124.049 127.425 125.008 127.425 126.294C127.425 127.628 127.039 128.599 126.267 129.207C125.495 129.815 124.478 130.12 123.215 130.12H108.199C105.509 130.12 104.164 128.845 104.164 126.294C104.164 125.312 104.538 124.388 105.287 123.522C105.31 123.288 105.357 123.066 105.427 122.855C105.497 122.622 105.532 122.388 105.532 122.154C105.532 121.85 105.357 121.23 105.006 120.294C104.655 119.358 104.223 118.305 103.708 117.135C103.217 115.966 102.737 114.854 102.27 113.802C101.989 113.825 101.72 113.837 101.463 113.837C100.013 113.837 98.5625 113.673 97.1123 113.345V118.644C97.1123 119.299 97.1474 119.744 97.2176 119.978C97.2878 120.212 97.5333 120.598 97.9544 121.136C98.656 122.002 99.2759 122.774 99.8138 123.452C100.352 124.107 100.621 125.055 100.621 126.294C100.621 127.651 100.235 128.634 99.463 129.242C98.7145 129.827 97.6971 130.12 96.4107 130.12H79.2195C77.9565 130.12 76.9391 129.815 76.1672 129.207C75.4188 128.599 75.0445 127.628 75.0445 126.294C75.0445 125.078 75.2784 124.189 75.7462 123.627C76.2374 123.043 76.7987 122.575 77.4303 122.224C78.0852 121.85 78.6465 121.417 79.1143 120.925C79.6055 120.434 79.851 119.674 79.851 118.644V93.0272C79.851 91.9978 79.6055 91.2375 79.1143 90.7462C78.6465 90.2315 78.0852 89.7987 77.4303 89.4478C76.7987 89.0735 76.2374 88.6056 75.7462 88.0441C75.2784 87.4592 75.0445 86.5702 75.0445 85.3771C75.0445 84.0436 75.4188 83.0727 76.1672 82.4644C76.9391 81.8562 77.9565 81.552 79.2195 81.552H98.7613C100.913 81.552 103.17 81.7158 105.532 82.0433C107.918 82.3709 110.222 82.9206 112.444 83.6927C114.689 84.4413 116.713 85.4707 118.514 86.7808C120.338 88.0675 121.776 89.6817 122.829 91.6235C123.905 93.5652 124.443 95.8813 124.443 98.5717ZM97.1123 88.6056V107.204C97.6269 107.251 98.2116 107.275 98.8665 107.275C101.72 107.275 103.767 106.467 105.006 104.853C106.246 103.216 106.866 101.063 106.866 98.3963C106.866 95.6825 106.035 93.3781 104.375 91.4831C102.737 89.5647 100.515 88.6056 97.7088 88.6056H97.1123Z" fill="#CF6467"/>
<path d="M149.352 93.0623C153.212 93.0623 156.591 93.8577 159.492 95.4485C162.415 97.0394 164.696 99.2736 166.333 102.151C167.97 105.029 168.789 108.409 168.789 112.293C168.789 116.106 167.888 119.428 166.087 122.259C164.286 125.066 161.866 127.254 158.825 128.821C155.808 130.365 152.451 131.137 148.756 131.137C144.873 131.137 141.47 130.342 138.546 128.751C135.623 127.137 133.342 124.879 131.705 121.978C130.091 119.054 129.284 115.65 129.284 111.766C129.284 107.976 130.197 104.678 132.021 101.87C133.845 99.063 136.278 96.899 139.318 95.3783C142.359 93.8343 145.704 93.0623 149.352 93.0623ZM151.352 123.382C151.937 123.382 152.346 123.078 152.58 122.469C152.837 121.861 153.001 121.194 153.071 120.469C153.141 119.721 153.176 119.147 153.176 118.75C153.176 117.416 153.071 116.094 152.861 114.784C152.65 113.451 152.381 112.141 152.054 110.854C151.937 110.339 151.715 109.544 151.387 108.468C151.06 107.368 150.662 106.222 150.194 105.029C149.727 103.836 149.212 102.818 148.651 101.976C148.089 101.133 147.493 100.712 146.861 100.712C146.323 100.712 145.926 101.016 145.669 101.625C145.435 102.233 145.283 102.911 145.212 103.66C145.142 104.385 145.107 104.935 145.107 105.309C145.107 105.941 145.201 106.959 145.388 108.362C145.575 109.743 145.844 111.287 146.195 112.995C146.569 114.702 147.013 116.352 147.528 117.943C148.043 119.51 148.616 120.808 149.247 121.838C149.902 122.867 150.604 123.382 151.352 123.382Z" fill="#CF6467"/>
<path d="M190.365 80.6747V97.2382C191.675 95.9983 193.137 94.9923 194.751 94.2203C196.388 93.4483 198.177 93.0623 200.119 93.0623C202.504 93.0623 204.574 93.5886 206.329 94.6414C208.106 95.6942 209.568 97.0862 210.714 98.8174C211.884 100.549 212.749 102.467 213.31 104.572C213.895 106.678 214.187 108.784 214.187 110.889C214.187 114.398 213.509 117.697 212.153 120.785C210.796 123.873 208.808 126.376 206.188 128.295C203.592 130.19 200.388 131.137 196.575 131.137C194.868 131.137 193.312 130.88 191.909 130.365C190.506 129.851 189.231 129.125 188.085 128.189C186.331 128.845 184.46 129.488 182.472 130.12C180.483 130.751 178.729 131.067 177.209 131.067C176.39 131.067 175.747 130.81 175.279 130.295C174.835 129.78 174.613 129.125 174.613 128.33V91.5533C174.613 90.5005 174.449 89.7168 174.122 89.2021C173.794 88.664 173.408 88.2429 172.964 87.9388C172.519 87.6113 172.133 87.2604 171.806 86.8861C171.479 86.5117 171.315 85.9503 171.315 85.2016C171.315 84.2424 171.607 83.5172 172.192 83.0259C172.777 82.5112 173.467 82.1018 174.262 81.7977L181.805 78.7447C182.694 78.3704 183.606 78.0428 184.542 77.7621C185.477 77.4813 186.436 77.341 187.418 77.341C188.377 77.341 189.102 77.6802 189.594 78.3586C190.108 79.0137 190.365 79.7857 190.365 80.6747ZM192.751 102.186C191.886 102.186 191.091 102.479 190.365 103.064V121.803C190.74 122.2 191.161 122.528 191.628 122.785C192.096 123.019 192.623 123.136 193.207 123.136C194.26 123.136 195.102 122.75 195.733 121.978C196.365 121.183 196.833 120.2 197.137 119.03C197.464 117.861 197.675 116.691 197.768 115.521C197.862 114.351 197.908 113.392 197.908 112.644C197.908 111.825 197.85 110.831 197.733 109.661C197.616 108.491 197.371 107.333 196.996 106.187C196.645 105.04 196.131 104.093 195.453 103.344C194.774 102.572 193.874 102.186 192.751 102.186Z" fill="#CF6467"/>
<path d="M234.536 77.341C235.495 77.341 236.232 77.6685 236.746 78.3236C237.284 78.9786 237.553 79.7623 237.553 80.6747V119.557C237.553 120.235 237.588 120.902 237.659 121.557C237.729 122.189 238.021 122.762 238.536 123.277C239.167 123.908 239.705 124.423 240.15 124.821C240.617 125.195 240.851 125.897 240.851 126.926C240.851 127.979 240.524 128.774 239.869 129.312C239.214 129.85 238.384 130.12 237.378 130.12H221.941C220.935 130.12 220.105 129.85 219.45 129.312C218.795 128.774 218.468 127.979 218.468 126.926C218.468 126.037 218.631 125.394 218.959 124.996C219.286 124.575 219.672 124.212 220.117 123.908C220.561 123.604 220.947 123.183 221.274 122.645C221.602 122.083 221.766 121.206 221.766 120.013V91.5533C221.766 90.4303 221.798 89.6623 221.405 88.0893C221.249 86.736 221.249 86.123 219.832 83.3702C219.34 83.0895 221.623 79.0956 221.249 78.7447C220.875 78.3704 224.157 78.2901 224.157 77.4713C224.157 76.5355 226.302 76.413 226.91 75.8983C227.518 75.3836 220.222 82.1018 220.994 81.7977L228.817 78.7447C229.753 78.3704 230.689 78.0428 231.624 77.7621C232.56 77.4813 233.53 77.341 234.536 77.341Z" fill="#CF6467"/>
<path d="M279.128 106.924C279.128 109.006 278.508 110.585 277.268 111.661C276.052 112.737 274.438 113.275 272.427 113.275H258.288C258.826 115.287 259.785 116.983 261.165 118.364C262.545 119.721 264.533 120.399 267.129 120.399C268.158 120.399 269.176 120.188 270.181 119.767C271.211 119.323 272.169 118.808 273.058 118.223C273.97 117.638 274.766 117.135 275.444 116.714C276.122 116.27 276.637 116.048 276.988 116.048C277.666 116.048 278.157 116.293 278.461 116.785C278.765 117.252 278.917 117.79 278.917 118.399C278.917 120.528 278.414 122.399 277.409 124.013C276.426 125.604 275.117 126.926 273.479 127.979C271.865 129.032 270.088 129.815 268.147 130.33C266.229 130.868 264.334 131.137 262.463 131.137C258.791 131.137 255.551 130.377 252.745 128.856C249.938 127.336 247.739 125.207 246.149 122.469C244.582 119.709 243.798 116.469 243.798 112.749C243.798 108.772 244.558 105.309 246.079 102.362C247.622 99.4139 249.833 97.1329 252.71 95.5187C255.586 93.8811 259.036 93.0623 263.059 93.0623C265.843 93.0623 268.451 93.5886 270.883 94.6414C273.339 95.6942 275.327 97.2499 276.847 99.3087C278.368 101.367 279.128 103.906 279.128 106.924ZM257.656 107.871C257.656 108.128 257.656 108.386 257.656 108.643H261.305C262.194 108.643 262.802 108.444 263.13 108.047C263.457 107.625 263.621 106.994 263.621 106.152C263.621 105.59 263.551 104.853 263.41 103.941C263.27 103.028 262.989 102.21 262.568 101.484C262.171 100.759 261.586 100.397 260.814 100.397C260.112 100.397 259.551 100.689 259.13 101.274C258.709 101.835 258.393 102.549 258.183 103.414C257.972 104.257 257.832 105.087 257.762 105.906C257.692 106.725 257.656 107.38 257.656 107.871Z" fill="#CF6467"/>
<path d="M237.578 71.6153V95.3783L225.872 90.1621L220.534 84.3662L216.221 77.4112L213.14 71.6153C209.581 69.8766 201.189 66.399 196.096 66.399H166.525C162.075 62.9215 156.517 54.9232 156.517 50.7502C158.297 52.489 159.05 55.9665 161.185 55.9665C163.855 55.9665 171.864 60.3134 175.56 60.3134H202.462C209.239 60.3134 209.855 60.3134 213.14 66.399C215.769 71.2676 219.164 68.4276 220.534 66.399L225.872 55.9665V50.7502C224.093 48.2387 218.398 41.5348 209.855 34.8116C205.584 31.1023 206.022 27.277 206.775 25.828H209.855C211.977 27.8566 217.084 32.4933 220.534 34.8116C224.846 37.7095 225.873 39.4483 229.98 39.4483C234.087 39.4483 234.908 55.9665 234.908 60.3134C234.908 63.7909 240.111 61.7624 242.712 60.3134L247.641 55.9665L251.337 50.7502L258.73 43.2156H267.149C269.819 43.2156 266.573 41.0667 276.22 41.0667C277.793 41.0667 278.629 42.6916 279.366 43.2156C275.807 44.1816 268.751 47.0409 264.48 50.7502C259.141 55.3869 259.14 55.0971 255.033 60.3134C251.748 64.4864 248.736 66.1092 247.641 66.399L237.578 71.6153Z" fill="#CF6467"/>
</svg>
