<svg id="Capa_1" data-name="Capa 1" xmlns="http://www.w3.org/2000/svg" viewBox="0 0 635.15 635.93"><defs><style>.cls-1{fill:#fff;}</style></defs><path class="cls-1" d="M-157.12,414.93a27,27,0,0,1,3.4,2c14.8,11.33,24,26.87,32.08,43.17,13.18,26.54,26.17,53.18,39.24,79.78,2.51,5.12,2.09,6.47-3.44,8.35-29.11,9.93-58.32,19.56-87.36,29.71-15.36,5.36-30.86,8.84-47.21,7.38-2.29-.2-4.58-.33-7.38-.52a37,37,0,0,0,0,6c2.86,16.78-1.53,32.56-6.73,48.17-9.76,29.31-19.73,58.55-29.63,87.81-1.74,5.14-3.56,6.12-7.76,4-31.9-15.93-63.87-31.74-95.61-48-9.3-4.75-17.82-10.86-24.2-19.5-2-2.75-4.64-5.06-7.49-8.11-14,21.28-35.75,30.78-56.87,41.24q-32,15.89-64.08,31.78c-1,.51-2.1.93-3.18,1.35-7.63,3-8.05,2.71-10.63-4.92-10.55-31.25-21.45-62.4-31.59-93.79-4.24-13.09-6.69-26.7-4-40.67.33-1.7,0-3.52,0-5.7-19.53,3-37.69-.59-55.66-6.79-28.26-9.74-56.69-19-85-28.54-6.44-2.16-7.29-4.42-4.15-10.73q22.53-45.27,45.09-90.51a87.14,87.14,0,0,1,25.81-31c2.68-2,3-3.67.21-5.78-18.05-13.78-27.56-33.49-37.12-53.22-11.4-23.51-23-46.91-34.57-70.35-2.28-4.63-1.45-7,3.39-8.64,19.88-6.61,39.79-13.14,59.67-19.75,12.66-4.2,25.16-8.92,38-12.63,10.58-3.07,21.29-6.22,32.68-4.24,3.67.64,7.56.1,12,.1-.4-3.61-.82-7-1.12-10.38-1.39-15.4,2.86-29.86,7.63-44.18,5.74-17.25,11.68-34.43,17.48-51.66,3.78-11.24,7.16-22.61,11.27-33.72,2.54-6.85,3-8.35,10.52-4.53,28.49,14.38,57.24,28.25,85.76,42.56,12.94,6.49,25.24,14,33.92,26.12a32.43,32.43,0,0,0,3.36,3.68,22,22,0,0,0,2.05,1.57c2.35-2.79,4.65-5.56,7-8.3,8.67-10.14,19.62-17.14,31.43-23q43.75-21.72,87.45-43.51c4.26-2.12,6.73-1.17,8.28,3.43,7.07,21,14.22,41.93,21.08,63,4.93,15.11,9.85,30.24,14,45.57,1.67,6.23,1.43,13,1.66,19.58.16,4.44-.4,8.91-.67,14.05a41,41,0,0,0,6.21,0c20.17-3.36,38.53,3.74,57,9.84,17.09,5.63,34.11,11.47,51.16,17.23,9.22,3.12,18.47,6.13,27.61,9.43,5.74,2.07,5.91,3.8,3.16,9.3-9.93,19.82-19.44,39.86-29.48,59.63-7.63,15-15.12,30.25-24.08,44.49C-141.44,400.49-149.31,406.65-157.12,414.93ZM-354,493.7c15.54-1.78,27.35-5.58,32.05-20.23,2.71-8.45,6-17.06-1.68-25.12-2.23-2.35-.32-5.62,3.26-5.87,7.12-.51,11.39-4.71,14.64-10.48.81-1.44,1.69-2.83,2.58-4.21,9.63-15.09.39-38.35-16.75-42.18-4.06-.91-5.76-3.42-3.62-6.19,4.54-5.86,5.77-12.2,3.32-19-1.93-5.37-3.59-11.3-7.12-15.52-9.2-11-24-13.2-36.51-6.53-3.25,1.74-5.22,1.54-6-2.6a22.41,22.41,0,0,0-2.47-7.49c-6.18-10.19-23.56-16.91-34.41-12.61-9.68,3.82-19.61,7.94-20.95,20.77-.33,3.2-3.68,4.13-6.15,1.88-4.82-4.41-10.21-4.66-16.17-3.59-13,2.35-22.93,8.14-26.49,22-2,7.76-3.42,15.12,2.3,22.14,2.53,3.1.89,5.48-3.76,6.74-2.67.73-5.9,1.1-7.75,2.83-6.64,6.24-11.44,13.84-12.3,23.13-1,10.74,4.2,19.23,11.43,26.44,2.18,2.17,5.59,3.53,8.67,4.25,5.1,1.18,6.45,3.48,3.08,7.74-4.06,5.12-4.32,10.56-2.69,16.45.65,2.38,1.38,4.75,2.08,7.12,4.92,16.57,26.89,24.91,41.59,15.87,2.45-1.5,5.87-2.17,6.2,1.67.71,8.35,5.91,12.72,12.27,16.84,16.78,10.87,39,3.46,45.28-15.33,1.65-4.92,3.19-5.17,7.87-2.36C-359.17,492.06-355.66,493-354,493.7Zm81.25,74.13c6.75,7.14,12.75,14.1,15,23.57,3.05,12.77,2.33,25.49-.64,38-5.54,23.29-11.72,46.44-17.61,69.65-1.3,5.12-3,6-7.77,3.34-5.35-3-10.61-6.11-15.84-9.3-17.94-10.93-36.16-21.46-53.67-33-11.77-7.79-21.07-18.29-24.29-32.68-1.07-4.76-.88-9.8-1.31-15.32-4.19.62-8.07,1.38-12,1.72-3.29.28-5,1.81-4.8,5,.29,5.45.7,10.9,1.17,16.35,1.32,15.37,9.51,27.1,21.74,35.16,13.2,8.7,27.53,15.73,41.56,23.11,19.91,10.47,40,20.6,60.45,31.12a47.64,47.64,0,0,0,3.11-6.31q7.75-24,15.31-48.08c4.66-14.78,9-29.65,14-44.33a62.35,62.35,0,0,0,1.67-35.59c-2.87-11.51-10.15-20.23-18.5-28.27-2.78-2.67-4.93-4-8.3-.85C-266.11,563.57-269.32,565.4-272.74,567.83ZM-543.13,274.42c-7.54-8.44-15-16.42-25.46-20.62-13.5-5.39-27.26-5.31-40.89-1-31.63,10-63.12,20.53-94.79,30.48-4.91,1.54-4.51,3-2.55,6.78,12.88,24.86,25.32,49.95,38.34,74.74,5,9.48,10.08,19.21,16.89,27.35,12.48,14.93,29.55,20.08,48.7,18.3,1.4-.13,3.37-2,3.79-3.41,1.23-4.22,1.81-8.62,2.67-13.05-5.74-.52-11.13-.37-16.22-1.56-16.53-3.89-26.74-16-35.61-29.23-7.27-10.84-13.85-22.15-20.52-33.37-6.9-11.62-13.54-23.39-20.63-35.66,2.18-1.28,3.85-2.81,5.78-3.31,16.75-4.38,33.46-8.92,50.34-12.71a377.28,377.28,0,0,1,39-6.94c10.3-1.2,20.66.31,29.59,6.42,4.21,2.88,8,6.38,12.33,9.87Zm164.84-58.68c0-4.06-.31-7.41.08-10.67a43.87,43.87,0,0,1,2.4-10.53c5.1-13,14.74-22.34,26.14-29.73,13.45-8.71,27.29-16.82,41.05-25.05,9.59-5.73,19.33-11.22,30.21-17.52,1.49,4.49,3,8.21,3.94,12,3.87,15.05,7.45,30.18,11.4,45.2,4.23,16.07,8.88,32.15,6.6,48.95A60.85,60.85,0,0,1-262.6,247c-2.37,4.72-6.55,8.52-9.94,12.75,3.46,2.54,6.48,5.21,9.93,7.09,1.57.85,4.72,1,5.91,0,21.31-18,26.13-39.76,18.73-64.74-4.08-13.75-8.75-27.32-13.18-41-5.9-18.18-11.94-36.31-17.64-54.55-1.09-3.53-2.78-3.23-5.1-2.06-3.25,1.63-6.37,3.53-9.6,5.2-28.07,14.58-56.54,28.45-84.12,43.92-20.86,11.7-29.41,31.14-27.93,54.84.12,1.88,2.36,4.62,4.19,5.21C-387.49,215-383.25,215.05-378.29,215.74ZM-200.84,394.2c.77,4.47,1.34,9,2.44,13.46a4.77,4.77,0,0,0,3.41,2.81c24.78,1.41,41.9-5,56.29-27.76,8.61-13.62,15.29-28.47,22.69-42.85C-107.85,324-99.95,308-91.78,292.11c3.86-7.5,4-7.25-3.9-9.76-26-8.26-51.83-16.84-77.85-24.91-10.08-3.12-20.35-6.57-30.75-7.48-19.33-1.69-35.07,6.71-47.45,21.37-1,1.22-1.64,4-.94,5.24,2.28,3.91,5.25,7.41,7.64,10.63,6-4.33,11.14-9.4,17.29-12.17,14.38-6.47,29.59-4.79,44.45-1.64,13.4,2.84,26.58,6.67,39.86,10,9.9,2.51,19.85,4.84,29.71,7.51,5.12,1.38,5.81,3.9,3,8.43-2.61,4.23-5,8.57-7.63,12.81-12,19.61-23.63,39.49-36.3,58.68-6.75,10.23-16.37,18-28.67,21.13C-188.82,393.39-194.68,393.47-200.84,394.2ZM-552.46,539.78a33.67,33.67,0,0,0-3.51,2.8c-13.43,14.57-30.47,16.27-48.54,13.09-12-2.13-23.94-5.07-35.82-8q-21.84-5.38-43.54-11.39c-5.86-1.62-6.16-2.73-3-7.92,12.93-21.53,25.81-43.09,39-64.48,8.08-13.15,18.49-23.93,33.86-28.31,5.49-1.57,11.34-1.83,17.44-2.75-.78-4.27-1.41-8.52-2.43-12.67-.27-1.1-1.78-2.75-2.64-2.7-8.89.56-18.16.06-26.57,2.46-16.22,4.63-26.66,16.75-34.28,31.3-9.07,17.31-17.91,34.73-26.82,52.12-6.55,12.79-13.05,25.6-19.67,38.58a22.36,22.36,0,0,0,4,2.33c12.87,4.12,25.78,8.08,38.65,12.21,14.9,4.78,29.77,9.67,44.65,14.55s30,8.85,46.16,5c14-3.35,23.19-12.55,32.43-22.51Zm134.64-324.3a106.14,106.14,0,0,0,11.27-1.6c1.6-.39,3.95-2,4.1-3.35,1.34-11,.75-21.82-4.13-32C-413.1,165-423.87,155.74-437.06,149q-42.26-21.65-84.48-43.33c-5.79-3-5.87-2.79-7.94,3.7-7.72,24.23-15.63,48.39-23.24,72.65-3.45,11-7.57,22-9.24,33.34-3.07,20.88,5.22,37.94,21.2,51.35,1.07.9,3.36,1.75,4.24,1.22,4.15-2.47,8-5.43,12.17-8.36-12-10.51-17.21-23.31-17.48-38-.25-13.82,3.72-27,7.21-40.25,4.38-16.58,8.36-33.26,12.46-49.9,2.08-8.45,3.4-9.05,11.06-4.6,8,4.64,16.12,9.13,24,14,16.5,10.37,33.24,20.45,49.12,31.71a43.79,43.79,0,0,1,18.25,28.66C-419,205.9-418.47,210.64-417.82,215.48Zm172.07,325.75c-1.95,2.76-4.79,6.55-7.28,10.55-.47.75,0,2.84.78,3.5,6.56,5.75,12.59,12.56,20.1,16.66,15.22,8.33,31.64,7,47.69,1.9,30-9.52,59.89-19.5,89.93-28.94,7.29-2.29,6-4,3.61-8.57-12.84-24.81-25.54-49.69-38.59-74.4-4.68-8.87-9.23-18.09-15.51-25.79-12.76-15.63-30.26-20.72-50-18.75-1.15.11-2.88,1.3-3.13,2.3-1.11,4.38-1.78,8.87-2.58,13.15,6.34.92,12.22,1.13,17.72,2.71,12.79,3.67,22.73,12,29.71,22.86,14.56,22.68,28.27,45.93,42.15,69,3.82,6.36,2.82,8.08-4.43,9.82-25.68,6.16-51.33,12.44-77.05,18.43-10.18,2.37-20.7,2.33-30.36-1.54C-230.75,551-237.72,545.88-245.75,541.23Zm-172.1,70.83a11.11,11.11,0,0,0-.58,2.15c.53,20.94-10.52,35.38-26.69,46.6-9.1,6.32-18.72,11.9-28.21,17.66q-19.94,12.09-40,23.9c-4.71,2.75-6.4,2-7.79-3.19-3.06-11.45-6.17-22.9-8.9-34.43-3.81-16.09-7.27-32.25-10.9-48.38a47,47,0,0,1,3.43-30.47c3-6.55,7.92-12.24,12.09-18.49-2.74-2-5.81-4.61-9.17-6.71-1.29-.8-4-1.38-4.77-.67-8.1,7.59-16.39,15.07-20,26.16-5.2,15.73-2.87,31,2.21,46.22,6.48,19.43,12.61,39,18.86,58.48,3.12,9.74,6.07,19.54,9.34,29.24.64,1.9.79,5.45,4.9,3.32,28.76-14.9,57.6-29.64,86.38-44.51,11.63-6,21.63-13.87,28.69-25.22,5.95-9.55,7.14-20.18,7.3-30.92,0-2.81,1.28-7.64-3.58-8.79C-409.33,613.06-413.47,612.72-417.85,612.06Zm-30.91-111c-9.14-3.71-13.05-3.81-16.35.22-6.6,8.07-11.4,16.9-12.06,27.76-.36,6-.62,12.37-5.09,17.28-8.41,9.25-19.23,7.11-29.37,5.25a30,30,0,0,1-18.84-12c-6.4-8.59-7.35-18.19-7-28.32a18.58,18.58,0,0,1,17.06-18c9.36-1,18.59-2.45,26.91-7.59,11.19-6.93,12.63-10.53,7.34-21.48a11.86,11.86,0,0,0-1.6,1.1c-12.25,12-27.18,15.16-43.61,13.32-7.23-.81-11.66,1.29-15.28,7.48-6.83,11.66-7.62,24.4-4.77,37,5.17,22.81,19.38,37.51,42.34,43.28,12.65,3.19,24.91,2.29,36.66-3.63,8-4,10.18-10,8.86-18.79a48.19,48.19,0,0,1,.79-16.7A50.7,50.7,0,0,1-448.76,501.07Zm76.08,10.28c-9,2.75-12,6.23-11.08,13.1.47,3.6.7,7.51,2.33,10.61a164.56,164.56,0,0,0,12.35,20.14c4.91,6.77,7.1,16,2.66,21.7-4.32,5.48-9.42,10.9-15.31,14.48-17.25,10.48-35.75,3.23-47.1-11.18-5.86-7.44-6.26-16.27.5-24.47,5.89-7.14,11-14.64,13.59-23.89,3.28-11.72.92-17.8-9.51-20.14-.45,2.26-1,4.51-1.34,6.78-2.32,14.18-8.55,26-20.65,34.26-5.37,3.67-8,10.36-6.36,16.13,6.14,22.28,28.59,38.29,50.24,39.65,23.56,1.49,46.22-12.6,55.84-34.14,2-4.41,3.35-9.14,1.15-13.88-1.15-2.48-2.49-5.36-4.6-6.83C-364.68,543.42-371.55,529.13-372.68,511.35Zm-76.91-185.18a84.76,84.76,0,0,1-5.37-7.1c-7.22-11.93-11.5-24.49-7.93-38.7a10.21,10.21,0,0,0-.51-5.33c-2.06-6.33-6.89-9.93-12.86-12.13-23.55-8.69-53.24-.08-66.71,21.63-10.78,17.35-13.5,35.69-4.77,54.76,3.87,8.44,10.45,12,19.49,9.6,6.78-1.79,13-.69,18.93,1.53,8.19,3.06,15.92,7.36,24.22,11.31a38.74,38.74,0,0,0,1.75-5.32c1.56-7.55-4.32-10.56-9.1-13.87-7.7-5.33-16.53-7.34-25.8-7.84-7.6-.4-14.41-3.2-17.17-10.62-4-10.67-2.82-21.35,2.22-31.72,8-16.42,30.76-21.19,43.85-16.17,10.11,3.89,11.68,13.19,12.28,22.54.69,10.55,4.94,19.48,11.91,27.17C-460.63,330.91-455,330.85-449.59,326.17Zm77-10c.3-3.15.27-6,.89-8.73,3-13.29,9.12-24.51,20.55-32.75,7.68-5.53,8.41-12.33,4.79-21.15-9.48-23.06-38-39.9-65-32.82-17.68,4.64-31,14.77-38.94,31.38-5.06,10.6-3.44,16.56,5.64,23.77a49.21,49.21,0,0,1,17.29,25.53c1.39,4.86,2.16,9.9,3.29,15.18,4.86-2.56,10.62-3.75,10.63-10.25a50.48,50.48,0,0,0-1.79-11.72c-2-8.42-7.08-15.16-12.42-21.78-3.76-4.67-6.27-9.82-5.17-16.35,1.62-9.58,8.78-14.62,15.69-19.59,6.13-4.41,13.67-7,21.08-5.64a47.12,47.12,0,0,1,18.51,7.61c13.63,9.79,18.82,21.51,7.07,35.08A56.33,56.33,0,0,0-383,298.85C-385.16,308.33-382.49,313.53-372.62,316.15ZM-348.14,501c.58.85.9,1.39,1.3,1.87,10.3,12.38,15.68,26.16,12.67,42.55-1.22,6.64,1,12.34,6.84,15.82,10.9,6.51,22.5,8.29,35.21,5.79,14.24-2.8,26.45-8.55,35.15-20.3,13.07-17.67,16.15-37.09,7.86-57.58-3.45-8.52-9.34-11.46-17.95-10.65-6.66.62-13.87.7-20.15-1.22-8.51-2.61-16.37-7.37-24.69-11.29-4.3,6.27-3.83,10.06,2.38,15.66,9.28,8.37,20.74,10.63,32.56,11.65,7.82.67,13.43,4.53,15.79,11.66,4.18,12.65,1.75,24.62-6.32,35.16s-19.63,12.81-32.38,12.82c-12.21,0-19.55-9.24-20-20.2-.44-9.68-2.95-18.44-8.73-26.4C-335.24,497.21-337.09,496.44-348.14,501Zm46.92-60.8c1.14.12,2,.25,2.76.28,15.91.69,28.66,7.58,38.16,20.17,6.09,8.08,12.13,8.86,19.55,6.24,20.28-7.18,34.25-26.57,36.22-46.53,2.41-24.32-7.95-43-28.42-56.14-10.92-7-21.49-6-27.35,2.57-4.54,6.66-10.29,11.84-17.66,14.79s-15.11,5-22.73,7.52c2.6,8.61,5.56,10.82,14.44,9.49a50.4,50.4,0,0,0,25.38-11.33c4.37-3.66,8.68-7.53,15-8,8.51-.57,14.15,4,19.16,9.75,7.95,9.11,12.43,19.25,9.53,31.81-2.1,9.06-7.41,15.75-14,21.79-8.51,7.81-17.34,7.94-26.27.57-7.16-5.92-14.59-11.17-24-13.37C-293.14,427.1-298.68,429.47-301.22,440.17Zm-194.18.18a68.25,68.25,0,0,0-3.37-7.15,9.23,9.23,0,0,0-9.22-4.61c-12.23,1.05-22.47,6.23-31.56,14.27-4.55,4-9.73,6.28-16.31,5.28-11.89-1.78-24.58-19.51-25.14-32s4.94-22.28,13.87-30.53,18.31-8.57,27.58-.8c7.69,6.45,15.94,11.7,26.14,13.52s14.61-.65,17.25-10.41a3.51,3.51,0,0,0-.88-.41c-.65-.09-1.32-.1-2-.15-15.2-1.08-28.27-7.16-37-19.49-6.18-8.71-15.28-10-24.36-5.7a54.37,54.37,0,0,0-21.77,18.44c-9.73,13.9-13.92,29.2-9.6,45.64,4.54,17.31,14.36,31,31.3,38.87,10.45,4.83,16.68,3.74,24.06-5.11,2.52-3,5-6.23,8.11-8.57C-518.85,444.31-508.26,440-495.4,440.35Zm183.7-78c6.32-3.59,12.06-7.55,18.33-10.22,7.56-3.22,15.43-5.34,24-3.14,9.46,2.41,15.71-1.12,20.11-10.25,8.89-18.47,4.49-46.06-10.36-61.15C-275.89,261-295.89,255.91-318,261.93c-12.83,3.49-18.31,9.49-15.89,21.24a35.65,35.65,0,0,1-1.72,20.95c-3.12,7.71-7.32,15-11.2,22.73,5.08,4.36,11.74,3.69,16.17-2.35a55,55,0,0,0,10.93-30.23c.6-9.88,4.35-16.85,15.28-19.31a35,35,0,0,1,11.42-.38c10.83,1.25,20.43,4.86,26.92,14.54,5.34,8,6.89,16.66,6.68,26-.25,11.09-7.92,19.14-19,19.63s-21,3.51-30,10.27C-315.81,350.5-315.88,354.74-311.7,362.35Zm-361.84-67.29.06,1.1c5.86,2.61,11.59,5.6,17.64,7.66a19.87,19.87,0,0,0,10.05.34c4.31-.91,8.35-3,12.58-4.44,13.68-4.54,27-10.82,42.19-7.48,7.56,1.65,13,5.28,15,12.62,1.53,5.36,1.91,11.05,3,16.57.92,4.84,1.45,9.9,3.27,14.41a13.64,13.64,0,0,0,15.37,7.92c-4.68-13-5.33-26.2-2.77-39.67a20.36,20.36,0,0,0,.42-7.27c-1.74-9.48-9-14.08-17-17.29-14.13-5.7-28.42-2.6-42.51.64-10.94,2.52-21.79,5.45-32.66,8.27C-657.11,290.58-665.32,292.85-673.54,295.06Zm0,236.06.15,1.31c1.41.43,2.81.91,4.24,1.28,12.29,3.15,24.63,6.14,36.88,9.47,15,4.08,29.91,8.09,45.76,7.46,8.91-.35,16.71-3.09,23.09-8.82,4.88-4.38,9.11-9.71,6.48-17.42a25.89,25.89,0,0,1-1.34-9.28c.48-10.47,1.34-20.92,2.06-31.47-6.46-.8-13.17,3.71-15,12-1.58,7.07-2.11,14.38-3.14,21.58-1.1,7.66-4.1,14.86-12,16.67-7.4,1.69-15.67,2.43-23,.94-11.38-2.31-22.28-6.94-33.44-10.43-2.95-.92-6.42-2.44-9-1.66C-659.26,525-666.33,528.27-673.52,531.12Zm343.88,39.18c.63,6.68,2.8,12.45,9.09,14.48,7,2.26,14.42,3.09,21.66,4.59a97.26,97.26,0,0,1,11,2.47c9.78,3.25,13.4,18.78,11.25,27.84-2.78,11.72-5.14,23.89-10.32,34.59-6.81,14.08,2.06,23.65,5.83,35.08.86-.42,1.12-.47,1.15-.58,5.55-21.68,11.42-43.3,16.5-65.09,2.64-11.34,3.49-23-.87-34.32-3.78-9.83-12.35-19.75-23.91-17.48a100.46,100.46,0,0,1-22.26,1.54C-316.68,573.22-322.82,571.48-329.64,570.3Zm-.08-312.48c1.75-.42,3-.64,4.14-1,10.6-3.14,21.26-4.4,32.33-2.44,5.15.91,10.47,3.85,15.86.09a35.85,35.85,0,0,0,14.24-19.71c3.9-13,.83-25.72-1.78-38.28-2.78-13.38-6.79-26.5-10.27-39.73q-2.4-9.1-4.83-18.2c-3.36,5.1-5.5,10.22-7.79,15.28-2.37,5.21-2.7,10.27-.28,15.67a144.48,144.48,0,0,1,5.6,15.32c3.77,11.94,8.19,23.7,5.3,36.75-1.73,7.82-7.77,14.73-15.64,15.77-4.92.65-9.88,1-14.8,1.71C-321.9,241.06-327.76,244.12-329.72,257.82Zm91.11,217.85c5.93,5.66,13,6.74,20.41,2.05,5.14-3.26,9.75-7.38,14.56-11.17,7.22-5.71,15.41-9,23.89-4.32,5.61,3.1,11.16,7.82,14.51,13.2,6.88,11.05,12.05,23.16,18.41,34.56,1.8,3.23,5,6,8.09,8.12,2.92,2,6.59,2.95,10,4.26,2.62,1,5.31,1.85,8,2.77-11.61-21.36-23.39-42-36.38-61.9-7-10.69-16.31-19.5-29.56-22.86-9.15-2.31-16.9.37-22.41,8.13a63.29,63.29,0,0,1-9.25,11C-224.82,465.2-231.77,470.27-238.61,475.67Zm-229.64,94.15a22.93,22.93,0,0,0-2.27.47,74.32,74.32,0,0,1-39.77,1.62c-5.13-1.18-9.79.42-13.71,4.23a36.86,36.86,0,0,0-11.48,25.61c-.73,14.15,2.62,27.64,6.12,41.13q6,23.13,12.12,46.23a130.09,130.09,0,0,0,9.75-21.32,9.56,9.56,0,0,0-.25-5.9c-2.17-6.39-4.88-12.61-7-19-3.41-10.18-7.33-20.4-6.15-31.39,1.28-11.92,4.63-18.78,17.85-21.78,5.62-1.28,11.51-1.41,17.28-2C-476.35,586.84-467.54,581.45-468.25,569.82Zm344.6-37.27c.07-.37.13-.74.2-1.11-5.42-2.24-11-4.15-16.2-6.84a15.33,15.33,0,0,0-13.31-.74c-4.93,1.84-9.94,3.52-14.89,5.33-11.57,4.23-23.18,7.91-35.83,6.67-10.31-1-17.34-7.16-18.79-17.28-1-7-1.93-14.07-2.89-21.11-1.2-8.84-9.68-15.4-17.26-13.33,3.31,12,5.64,23.92,3,36.6-2.9,13.63.28,18.61,12.56,25.55,11.05,6.25,23.05,5.21,34.47,3.47,14.13-2.15,27.91-6.6,41.82-10.12C-141.75,537.34-132.71,534.91-123.65,532.55Zm-300.63,33.18,1.28.64c-.45,13,12.45,26.93,29.47,23.24,16.2-3.51,23.87-20.68,15.7-35-4.22-7.38-7.52-15.31-10.88-23.15-1.33-3.1-.71-7.9-2.83-9.57s-6.69-.53-10.15-.86c-4.22-.4-5.85,1.37-6.37,5.56a53.83,53.83,0,0,1-8.8,24.42C-419.93,555.52-421.85,560.8-424.28,565.73Zm300.77-269.51-.06-1.84c-23.91-5.57-47.8-11.24-71.74-16.67-11.88-2.69-23.4-1.55-34.14,4.68-9.33,5.41-12.37,11.88-10.61,22.18.73,4.23,1.8,8.58,1.48,12.78-.69,9-2.19,17.86-3.35,26.77,8,.62,15.15-5.15,16.57-14.21,1.08-6.85,1.6-13.8,2.91-20.6,2.54-13.17,13.86-21.1,27.24-18.24,11.24,2.41,22.16,6.3,33.27,9.39,6.05,1.68,11.67,6.23,18.38,3.9S-130.18,299-123.51,296.22ZM-676.85,523.77l.89,1.5c5.24-2.19,10.58-4.18,15.7-6.63,3-1.46,6.54-3.08,8.39-5.67,2.84-4,4.48-8.82,6.56-13.32,5.56-12,10.67-24.22,21.25-33,10.32-8.58,18.87-8.78,29.42-.44,4.68,3.7,9.37,7.38,14.15,10.95,6.39,4.77,17.37,4.57,22.07-2.27a24.8,24.8,0,0,0-2.81-1.95,67.79,67.79,0,0,1-26.85-24.4c-5.24-8.17-13.53-10.61-23.36-8-13.67,3.63-22.71,13.25-29.83,24.27C-653.72,484.07-665,504.07-676.85,523.77ZM-509,135.41l-1,.79c2.71,6.48,5.17,13.08,8.27,19.37a14.08,14.08,0,0,0,5.79,5.65c11.61,6.27,23.84,11.52,35,18.51,8.87,5.56,17.07,13.15,15.54,25.19-.62,4.9-3.79,9.67-6.52,14-3.58,5.72-8.37,10.69-11.72,16.52-3.67,6.37-1.5,14.34,4.07,18.64a5.59,5.59,0,0,0,.95-1.13c5.13-11.07,12.84-19.82,22.71-27,12-8.74,13.72-14.24,9.58-28-3.6-11.92-12.67-19.68-22.34-26.4-10-7-20.67-13.11-31.17-19.4C-489.49,146.46-499.28,141-509,135.41ZM-337.58,573.5a7.24,7.24,0,0,0-1.2,1.43c-6.25,13-15.9,22.68-27.91,30.41a13.55,13.55,0,0,0-5,7.11c-1.77,6-1.09,12.09,1.06,18,5,13.6,15.89,21.8,27.34,29.17,12.9,8.31,26.26,15.89,39.45,23.73,5.3,3.15,10.69,6.13,17.16,9.83-2.59-6.56-4.88-11.8-6.73-17.19-2.11-6.16-6.34-9.86-12.25-12.07a81,81,0,0,1-8.17-3.55c-11.37-5.7-23.6-10.19-31.82-20.65s-9.77-17-2.23-27.63c3.35-4.71,7.08-9.15,10.75-13.63C-330.15,589.9-330.22,580.58-337.58,573.5ZM-287,136l-.94-.81c-3.8,2.18-7.66,4.26-11.39,6.54-17.79,10.89-35.88,21.32-53.18,32.93-11.31,7.58-19.61,18.18-20.23,32.66-.24,5.68.8,11.17,6.35,15.28a152,152,0,0,1,19.49,17.43c3.88,4.07,6.48,9.36,9.71,14.2,6.21-7.37,7.13-13.2,2.52-20.59-3.49-5.58-7.8-10.65-11.72-16-3.68-5-7.86-10.79-6-16.7,2-6.34,5.66-13.39,10.77-17.24,9.25-6.95,20.17-11.64,30.27-17.5,5.36-3.11,11.75-5.69,15.31-10.32C-291.75,150.3-289.93,142.75-287,136ZM-479.74,343.57c2.33-2.51,4.36-5.21,6.89-7.31,3.53-2.92,3.73-5.31.91-9.12A55.35,55.35,0,0,1-482.64,303c-2.28-13.59-9.74-20.09-22.56-20.88-13.45-.83-24.13,8.55-25.25,22.66-1,12.9,7.32,23.08,21.08,25a43.23,43.23,0,0,1,12.7,3.8C-491.07,336.28-485.88,339.88-479.74,343.57Zm-79,8.32c-6.6-5.8-11.55-6.87-19-2.5a121.91,121.91,0,0,0-16,11.68c-8.37,6.91-17.51,8.36-25.6,3.33a43.64,43.64,0,0,1-16.12-17.22c-5.2-10.14-10.13-20.42-15.34-30.55-1-2-2.37-4.4-4.21-5.3-6.87-3.36-14-6.18-21.73-9.5a14,14,0,0,0,.68,3c11,18.64,21.8,37.47,33.36,55.8,6.29,10,14.18,19,25.23,24.15,9.33,4.39,24.42,5.79,30.29-7.05,1.59-3.48,4.56-6.61,7.53-9.16C-573,362.83-565.9,357.53-558.76,351.89ZM-469,494.16c-2.38-2.06-5.47-4.35-8.1-7.09-2.47-2.56-4.32-2.6-7.19-.46-7.46,5.58-15.55,10.8-24.92,11.43-15.06,1-24.88,17.5-20.23,30.59,3.12,8.79,11.9,16.4,21.18,17.06,10.87.77,19-3.6,23.19-13.38,2-4.76,2.18-10.33,4.24-15.08C-477.68,509.86-473.58,502.89-469,494.16Zm152.57-150.74c2.05-1.47,3.91-3.22,6.1-4.26,7-3.28,13.81-8.08,21.12-9,13.82-1.8,24.17-12.79,22.06-27.36C-268.9,291-277.54,283.09-290.65,282c-10.62-.85-19.76,5.73-22.84,16.58-.9,3.17-1,6.64-2.32,9.59-3.62,8.08-7.69,16-11.85,24.44Zm196.57-39.7-1.32-1.67c-7.54,3.45-15.1,6.87-22.6,10.42a4.85,4.85,0,0,0-1.77,2.28c-2,4-3.88,8.06-5.83,12.08-6.4,13.21-11.76,27-24.34,36.19-7.72,5.62-15.06,6.43-22.88,1.08-6-4.1-11.56-8.84-17.46-13.08-8.47-6.08-15.77-5.5-23.41,2A68.22,68.22,0,0,1-208,380.78c4,6.58,10.27,7.63,16.79,7,13.68-1.26,24-9.09,31.22-19.93C-146,346.86-133.19,325.14-119.9,303.72Zm-278.94,2.15c8.39,0,8.09-.07,10-8.48,1.68-7.36,3.66-14.64,8.57-20.83,10.9-13.72,6.59-30.39-9.49-37.57-9.34-4.18-21-1-28.18,7.63-6.43,7.75-7.07,19.68-.76,27.72s9.4,17,10.61,26.82c.49,4,2.13,5.17,5.75,4.73A29,29,0,0,1-398.84,305.87ZM-291,406c0,4.47-.23,8.81.14,13.09a4.83,4.83,0,0,0,3,3.41c10.28,2,20.06,4.72,28.72,11.26,7.27,5.49,15.66,5.84,23.89,1.39,8.4-4.56,13-11.71,13-21.25s-4.09-17.11-12.59-21.57-16.69-3.93-24.76,1.66a62.21,62.21,0,0,1-13.55,7.08C-278.8,403.17-284.68,404.31-291,406Zm-.32,139.7c8.26.12,14.72-3.45,19.62-9.88,5-6.62,6.51-14.17,3.83-22-2.82-8.18-8.57-14-17.34-15.36a57.21,57.21,0,0,1-22.16-8.09c-9.59-6.08-9.39-6-17.39,1.6-3.09,2.92-3.17,4.9-.73,8.21,5.51,7.5,9.8,15.47,11,25.1C-313,537.55-303.24,545.68-291.36,545.73ZM-468.19,256.58c-.48-7.93-5.69-14.74-13-16-5.05-.87-10.19-1.22-15.29-1.85-8.16-1-16.71-2-21.11-10A32.79,32.79,0,0,1-520.24,204c3.16-11.58,7.36-22.86,10.94-34.33,1-3.1,2.55-6.75,1.72-9.53-2.22-7.49-5.6-14.64-8.92-22.92-1.08,3-1.86,4.61-2.31,6.35-3.41,12.92-6.94,25.81-10.05,38.8-3.32,13.81-7.38,27.49-6.68,42,.43,9.13,2.7,17.46,8.79,24.2,4.06,4.49,8.74,8.74,15.85,7.27,4.67-1,9.44-2.47,14.1-2.25C-487.31,254.09-477.87,255.53-468.19,256.58Zm7.11,316.68c-1.37,3.56-3.21,6.87-3.87,10.4-1.54,8.19,4.21,13.43,8.42,19.37,4.06,5.73,9.08,11.47,10.87,18,3.06,11.17-4.52,19.22-12.6,25.12s-16.8,11.06-26.06,14.06c-16,5.18-21.54,17.24-25.37,31.84a11,11,0,0,0,2.33-.68c19-11.34,38.3-22.28,56.93-34.22,11.35-7.28,21.77-16.28,24.68-30.46,2.18-10.63,1.85-18.13-8.88-24.39A36.7,36.7,0,0,1-444,595C-449.7,588.43-454.82,581.33-461.08,573.26Zm-45.25-167.65c-12-2.37-23.48-4.9-33.26-12.74-3.34-2.68-9.16-3.83-13.57-3.31-12.36,1.45-22.29,11-21.48,25.24.54,9.59,4.64,16.7,12.92,20.76,7.65,3.75,15.49,3.27,23.17-1.42,6.13-3.75,12.61-7.6,19.46-9.37,13.37-3.45,13.53-2.86,13-16.76C-506.08,407.36-506.2,406.71-506.33,405.61Zm353.12-88.74-1-.93-63,26.45c7,5.25,12.74,10,18.95,13.95a13.18,13.18,0,0,0,8.51,1.6c12.29-2,21-8.89,26.33-20.28C-160.21,330.65-156.64,323.79-153.21,316.87Zm-3.47,202.07-.15-1.41-63.26-25.88c1.46,8.81,2.45,16.43,4.12,23.91.5,2.27,2.54,4.59,4.49,6.1,8.39,6.48,17.61,9.7,28.27,6.08C-174.39,524.75-165.53,521.87-156.68,518.94ZM-157,310.12l.3-1.28c-4.39-1.56-8.77-3.17-13.19-4.68-8.12-2.77-16.09-6.57-25-5.34-8.28,1.14-16.64,3.72-20.4,11.55-3.56,7.43-4.27,16-3.46,25.06ZM-301,169.27l-1-1c-7.46,3.58-15.15,6.75-22.3,10.86a53.11,53.11,0,0,0-12.19,10,23.72,23.72,0,0,0-6.34,19.26c1.44,9.43,9.39,15.41,15.72,23.18C-318.08,210.21-309.53,189.74-301,169.27ZM-577.69,335.76c-.72-7.21-.81-13.06-2-18.68-1-4.7-2.47-9.32-7.25-12.42-8.94-5.8-18.16-7.73-28.35-4.4-8.51,2.79-17,5.63-25.51,8.45l.18,1.2Zm73.25,320.09,2.16,0L-476.61,593c-6.8.76-12.38,1.28-17.92,2a62.78,62.78,0,0,0-6.66,1.75c-6.81,1.74-14.13,17.08-12.57,24.87C-511.43,633.2-507.62,644.46-504.44,655.85Zm203.7,2.94c-8.69-20.71-17.38-41.42-26.29-62.62-2.8,3.08-5.12,5.43-7.21,8-10.39,12.58-10.83,25.91-.8,36.21C-325.69,649.94-312.81,653.43-300.74,658.79Zm-342-147.24,62.24-26.22c-3.92-3.16-7.05-5.56-10.05-8.12-12-10.2-24.07-10-35.17,1.2-8.7,8.77-12.54,20.46-17.54,31.41C-643.43,510.14-643,510.71-642.76,511.55ZM-643,315.92l-1,.82c4,8.07,8.24,16.08,12.11,24.23a27,27,0,0,0,14.34,13.82c6.72,2.82,13.71,5.54,20.63.45,5.31-3.9,10.45-8,16.76-12.9Zm173,279.51c-9.23,22-17.83,42.57-26.44,63.11l.92.91c7.9-3.94,16.05-7.44,23.59-12a41.56,41.56,0,0,0,12.35-11c4.79-6.76,7.42-14.91,3-22.82C-459.95,607.57-464.87,602.29-470,595.43Zm-170.45-77.84,0,1.27c5.07,1.77,10.1,3.71,15.23,5.28,9.19,2.81,18.09,7.39,28.27,3.65,6.2-2.29,12.94-4.69,15.15-10.94,2.68-7.54,3.14-15.87,4.56-23.86l-1.6-.7ZM-470,232.34c5.36-7.46,10.08-13.91,14.63-20.49a6.48,6.48,0,0,0,.83-3.86c-.55-8.11-2.55-15.69-8.61-21.61-9.22-9-21.53-12.26-33.26-17.26C-487.76,189.72-479.16,210.31-470,232.34Zm174.88,423.5,1.45.25c2.27-6.83,4.94-13.57,6.67-20.54,1.54-6.17,3-12.64,2.73-18.92-.3-8-3.56-16-11.19-19.16-7.38-3-15.85-3.35-23.84-4.86l-1,1.43ZM-477,233.69l-25.89-63.51c-1.93,5.3-3.52,9.19-4.77,13.19-3.07,9.81-8,19.33-5.29,30.15,1.67,6.54,4.15,12.89,10.28,16.31C-495,234.15-486.28,233.87-477,233.69Zm322.75,278,1.24-1.18c-5.11-9.55-9.78-19.36-15.44-28.57-7.47-12.14-24.26-15-35.72-6.68-4.11,3-8,6.34-12.69,10.1ZM-320.57,234.33c6.86-.71,12.41-1.48,18-1.8A15.42,15.42,0,0,0-290.3,226c3.65-5.15,6.27-10.65,6.5-17.36.29-8.42-2.52-15.91-5.21-23.54-1.59-4.53-3.24-9-5.38-15Zm-134.61,42.26c-7.75,21,6.3,45.65,20.33,48.84C-427,309.12-438.45,285.27-455.18,276.59ZM-310.7,377c14.8,8.49,41.4-2.44,48.63-20.19C-280.93,350.82-304.45,360.27-310.7,377ZM-535.34,470.2c15.27,7.05,42.73-2,48.73-20C-502.21,442.49-525,451.75-535.34,470.2Zm80.09,80.17c12.6-4.67,29.47-28.52,20.32-48.43C-452,506.58-462.35,535-455.25,550.37Zm194.86-80.91c-5.83-5.45-10.66-11.26-16.68-15.28-8.06-5.38-17.36-8.21-27.3-6-7.13,1.6-7.41,3.22-2.6,9,6.72,8.11,15.26,13.3,25.57,14.78C-274.87,473-267.95,473.77-260.39,469.46Zm-81.45-192.79c-19.81,10-27.73,35.48-20,48.92C-347.85,320.79-335.24,299-341.84,276.67ZM-486.32,377c-9.5-18.71-32.49-25.64-48.74-20C-530.17,371.62-504.56,386.11-486.32,377Zm144.47,173.22c6.82-20.78-5.71-43.31-20.34-48.27C-371.06,520.68-355.26,546.81-341.85,550.17Z" transform="translate(716.07 -95.86)"/><path class="cls-1" d="M-374.23,473.56c-1.8,14-9.41,22.44-23.83,23a24.41,24.41,0,0,1-11.84-2.81,27.17,27.17,0,0,1-9.32-8.42c-2.22-3.25-2.94-7.52-4.33-11.34-16.8,7.64-25.54,7.16-34.15-1.88s-8.86-17.33-.67-33.65c-18.23-2.63-24.65-14-21.93-31.07,1.92-12.05,11.22-16.14,21.83-18.22-8.38-17.92-8-24.62,2-34.33,9.35-9.09,16.55-9.39,33.12-.93,2.81-17.23,13.46-24.62,30.2-22.19,11.94,1.73,17.39,10.32,18.84,22.84,12.68-9.61,24.79-9.59,35.06,1.71,9.3,10.24,8.57,21.64-.14,32.9,12.71,1.79,21.25,7.56,22.94,20.29.94,7,.92,14.59-4.63,19.64-4.9,4.47-11.26,7.35-17.05,11,7.65,14.13,7.4,22.07-1.57,31.41C-349.57,481.78-356.25,482.24-374.23,473.56Zm.34-60.11c1.71-12.92-12.6-25.37-24.72-25-13.56.44-25.14,10.9-25.5,25.23-.34,13.3,12,25.84,25.3,25.55S-372.89,428.92-373.89,413.45Zm-22.71-39.12.85.34a5,5,0,0,0,0,2c1,1.93,2.08,3.77,3.14,5.64,1.37-1.39,3.34-2.53,4-4.2,2.66-6.55,5.1-13.21,7.21-20a16.29,16.29,0,0,0,.61-8.17c-1.89-8.18-8.11-12-15.79-13-11.1-1.45-23.57,8.59-20,20.15,2.32,7.4,5.07,14.67,7.85,21.91.51,1.31,2.09,2.2,3.17,3.29,1.07-1.28,2.61-2.39,3.14-3.86,1.9-5.23.11-9.95-2.25-14.71-3.46-7-.22-12.42,6.67-11.77,5.78.54,8.2,5.66,5.6,11.52C-393.87,367-395.18,370.71-396.6,374.33ZM-439,473.74c6,.7,10.35-2.67,13.11-7.64a214.37,214.37,0,0,0,9.69-20.64c.57-1.34-.33-3.31-.55-5-1.65.29-3.6.11-4.89.95-4.69,3-6.89,7.78-8.5,13-1.23,4-4.15,5.91-8.46,5.23-3.62-.57-5.54-2.78-5.89-6.36-.4-4.29,1.48-7.08,5.71-8a21.43,21.43,0,0,0,12.49-8.39c.91-1.2.65-3.3.92-5-1.51-.21-3.3-1-4.49-.53-7.57,3.35-15.1,6.81-22.42,10.65a12.24,12.24,0,0,0-4.88,5.44C-463.63,461-450.25,474.92-439,473.74Zm100.9-103.14c-1.37-2.48-3.08-7.26-6.17-10.85-6.44-7.48-21.73-9.72-27.12,2.09-3,6.6-6.47,13-9.37,19.64-.65,1.47.16,3.58.31,5.39,1.82-.39,3.95-.31,5.42-1.26,5-3.24,6.33-8.95,8.79-14,2.67-5.42,7.72-5.85,11.72-1.49,4.32,4.69,2,11.18-4.91,12.59-5.34,1.09-8.92,4.34-11.86,8.41-.82,1.15-.46,3.37-.12,5,.08.41,2.37.91,3.26.51,7.22-3.22,14.41-6.53,21.47-10.06C-341.21,383.84-338.58,379.06-338.14,370.6Zm-60.18,119.87c9.89.57,22-8.71,16.89-22.2-2.45-6.46-4.82-13-7.48-19.33-.55-1.31-2.26-2.14-3.44-3.19-1.12,1.42-3.3,2.94-3.17,4.23.47,4.5,2,8.89,2.62,13.38.46,3.2,1.18,6.93,0,9.66-1.53,3.55-6.85,3.91-10,1.64-3.38-2.43-4.1-7.34-1.4-11.65a17.76,17.76,0,0,0,1.92-14.75,3.8,3.8,0,0,0-2.5-2.37,3.63,3.63,0,0,0-3.06,1.62c-3.15,8.49-6.76,16.91-8.88,25.68C-419.15,482.89-407.28,491.36-398.32,490.47Zm-60.62-116.36c.62,4.56,2.26,9.7,8.18,12.43,6.89,3.18,13.65,6.65,20.58,9.75,1.16.53,3.87.26,4.12-.35a6.16,6.16,0,0,0-.17-4.77c-2.61-4.49-6.82-6.82-11.72-8.53-2.46-.85-5.32-3.07-6.22-5.36a7.26,7.26,0,0,1,5.29-9.66,8,8,0,0,1,9.45,6.75c.75,5.48,4.39,8.4,7.88,11.59,1,.93,3.13.68,4.73,1,.21-1.62,1.07-3.53.5-4.82-3.16-7.26-6.38-14.53-10.21-21.44a14.31,14.31,0,0,0-6.94-5.92C-445.12,350.34-458.84,360.28-458.94,374.11Zm120.7,58.48c2.88-.94,5.45-1.28,7.46-2.52a19.26,19.26,0,0,0,1.6-31.56c-3.39-2.67-7.22-4.42-11.93-2.6-7.22,2.78-14.64,5.06-21.85,7.85-1.65.64-2.82,2.52-4.21,3.83,1.67,1,3.23,2.57,5,2.94,5.27,1.07,10-.83,14.71-3.18,5-2.48,8.56-.67,10.57,4.56A6.91,6.91,0,0,1-342,421a10,10,0,0,1-7.37-1.4c-4.57-3.58-9.56-2.11-14.39-2.12-1.15,0-2.68,1.67-3.27,2.94-.24.5,1.39,2.35,2.5,2.93a56.2,56.2,0,0,0,7.75,3.16C-350.55,428.62-344.31,430.6-338.24,432.59Zm-14.16,20.2c-.84,2.92-1.75,6.24-6.13,6.82-5,.65-8.13-1.08-9.31-6.63s-5-8.81-8.9-12.09a4.17,4.17,0,0,0-3.9-.13c-.72.45-1.08,2.62-.64,3.6,3.56,8,7.3,15.9,11.09,23.78a7.45,7.45,0,0,0,2.37,2.44c9.25,6.84,20.88,2.94,26.68-6.86,4.12-7,3.43-17.16-2-20.32-8-4.65-16.43-8.42-24.79-12.34a4,4,0,0,0-3.79,1c-.63.9-.57,3.32.17,4a84.37,84.37,0,0,0,10.46,7.87C-357.54,446.1-352.58,446.63-352.4,452.79Zm-86.12-41.37.26-.79c1.16,0,2.54.4,3.44-.09a36.27,36.27,0,0,0,4.75-3.61c-1.28-1.08-2.4-2.53-3.88-3.17a125.51,125.51,0,0,0-13.85-5.32c-4.5-1.34-9.33-3.17-13.78-2.68-7.22.8-11.44,6.29-13.29,13.13-2.82,10.43,4.4,25.53,17.76,22.7,8.47-1.8,16.57-5.36,24.75-8.39.88-.32,1.77-2.49,1.5-3.5a4.29,4.29,0,0,0-3.09-2.31c-5.87-.76-11.56-.05-16.68,3.24-3.24,2.08-6.14.62-7.84-1.77-1.43-2-2.61-5.49-1.79-7.42.94-2.2,4-4.09,6.54-4.81,1.86-.52,4.33,1,6.5,1.74C-444.31,409.33-441.42,410.39-438.52,411.42Z" transform="translate(716.07 -95.86)"/></svg>