<svg id="Capa_1" data-name="Capa 1" xmlns="http://www.w3.org/2000/svg" viewBox="0 0 245.88 278.52"><defs><style>.cls-1{fill:#fff;}</style></defs><path class="cls-1" d="M178.68,173.76c36.65,0,66.35-25.6,66.35-57.18s-29.7-57.17-66.35-57.17c-.6,0-1.19,0-1.78,0A5.17,5.17,0,0,1,171.68,55C167.41,24.36,141.68.82,110.56.82,76.45.82,48.8,29.1,48.8,64V64a5.28,5.28,0,0,1-3.86,5.09c-26,7.31-44.85,29-44.85,54.51,0,31.58,28.76,57.18,64.24,57.18a71.56,71.56,0,0,0,18.21-2.34,5.19,5.19,0,0,1,6.49,5v33.87a5.55,5.55,0,0,1-.06.82c-2.21,13.94-7.34,36.66-18.11,46.46a3.47,3.47,0,0,1-.38.29,2.64,2.64,0,0,0,.71,4.77,128.7,128.7,0,0,0,37.29,4.17,7.92,7.92,0,0,1,3.62.74c13.81,6.57,23.05,1.91,25.87,1a9.94,9.94,0,0,0,1.77-.76c1.79-.8,3.73-3.25,14.89-4.46.27,0,.55.05.83.05,9.95.21,10.47-2.55,11.34-4.83.47-1.23-5.41-10-7.06-12s-2.59-8.59-5.77-22.7c-2.33-10.39-5.05-37-6.33-50.36,0-.17,0-.33,0-.49v-5.34a5.19,5.19,0,0,1,6.84-4.93A75.49,75.49,0,0,0,178.68,173.76Z"/></svg>