<svg width="66" height="68" viewBox="0 0 66 68" fill="none" xmlns="http://www.w3.org/2000/svg">
<path fill-rule="evenodd" clip-rule="evenodd" d="M33.1685 67.6498C51.0943 67.6498 65.6261 53.1376 65.6261 35.236C65.6261 17.3344 51.0943 2.82227 33.1685 2.82227C15.2427 2.82227 0.710938 17.3344 0.710938 35.236C0.710938 41.0494 2.24339 46.5053 4.92688 51.2229L0.710938 67.6498L17.6697 63.7226C22.2752 66.2269 27.5555 67.6498 33.1685 67.6498ZM33.1685 62.663C48.3365 62.663 60.6326 50.3836 60.6326 35.236C60.6326 20.0885 48.3365 7.809 33.1685 7.809C18.0005 7.809 5.70441 20.0885 5.70441 35.236C5.70441 41.0845 7.53746 46.5055 10.6611 50.9572L8.20114 60.1697L17.5887 57.826C22.0155 60.8766 27.3831 62.663 33.1685 62.663Z" fill="#BFC8D0"/>
<path d="M60.9892 32.9204C60.9892 48.2647 48.5334 60.7037 33.1684 60.7037C27.3079 60.7037 21.8706 58.894 17.3863 55.8037L7.87682 58.1779L10.3687 48.8458C7.20452 44.3363 5.34766 38.8449 5.34766 32.9204C5.34766 17.5762 17.8034 5.13721 33.1684 5.13721C48.5334 5.13721 60.9892 17.5762 60.9892 32.9204Z" fill="url(#paint0_linear_109_29)"/>
<path fill-rule="evenodd" clip-rule="evenodd" d="M33.1685 65.3344C51.0943 65.3344 65.6261 50.8222 65.6261 32.9206C65.6261 15.019 51.0943 0.506836 33.1685 0.506836C15.2427 0.506836 0.710938 15.019 0.710938 32.9206C0.710938 38.734 2.24339 44.1899 4.92688 48.9074L0.710938 65.3344L17.6697 61.4072C22.2752 63.9115 27.5555 65.3344 33.1685 65.3344ZM33.1685 60.3476C48.3365 60.3476 60.6326 48.0681 60.6326 32.9206C60.6326 17.7731 48.3365 5.49357 33.1685 5.49357C18.0005 5.49357 5.70441 17.7731 5.70441 32.9206C5.70441 38.7691 7.53746 44.1901 10.6611 48.6418L8.20114 57.8543L17.5887 55.5105C22.0155 58.5612 27.3831 60.3476 33.1685 60.3476Z" fill="white"/>
<path d="M25.0552 17.871C24.2835 16.3231 23.0996 16.4601 21.9037 16.4601C19.7663 16.4601 16.4336 19.0168 16.4336 23.7751C16.4336 27.6748 18.1543 31.9436 23.9525 38.3293C29.5483 44.492 36.9007 47.6799 43.0046 47.5714C49.1085 47.4629 50.3644 42.2174 50.3644 40.4459C50.3644 39.6607 49.8765 39.269 49.5404 39.1625C47.4603 38.1656 43.624 36.3081 42.7511 35.9591C41.8781 35.6101 41.4224 36.0822 41.139 36.339C40.3475 37.0923 38.7783 39.3125 38.241 39.8119C37.7038 40.3112 36.9028 40.0585 36.5695 39.8697C35.3429 39.3782 32.0171 37.9008 29.3661 35.3345C26.0876 32.1606 25.8952 31.0686 25.2775 30.0966C24.7833 29.319 25.1459 28.8419 25.3269 28.6334C26.0333 27.8194 27.0086 26.5628 27.446 25.9383C27.8834 25.3138 27.5362 24.3657 27.3278 23.7751C26.4317 21.2354 25.6726 19.1094 25.0552 17.871Z" fill="white"/>
<defs>
<linearGradient id="paint0_linear_109_29" x1="57.5116" y1="12.083" x2="5.41325" y2="60.7738" gradientUnits="userSpaceOnUse">
<stop stop-color="#5BD066"/>
<stop offset="1" stop-color="#27B43E"/>
</linearGradient>
</defs>
</svg>
