<svg width="47" height="45" viewBox="0 0 47 45" fill="none" xmlns="http://www.w3.org/2000/svg">
<path id="favicon" d="M29.2361 43.8933C36.474 45.131 40.7298 41.9391 42.9881 39.0512C44.8653 36.5051 46.0518 33.5167 46.4323 30.3764C46.8128 27.2361 46.3743 24.0508 45.1594 21.1302C40.6647 10.8089 26.6449 1.85567 23.5254 1.03055C21.7666 0.567325 16.1862 4.03427 12.0244 7.54465C11.8072 7.70388 -0.280027 16.3821 0.718799 28.7806C1.23269 35.2947 4.98915 40.4698 10.7577 42.5833C14.1451 43.8209 17.5758 43.6472 19.6531 42.2069C17.6514 40.3077 16.0985 37.9858 15.1077 35.4105C13.9726 32.5472 13.3693 29.5009 13.3272 26.4211C13.3343 26.1076 13.4501 25.8063 13.6547 25.5686C13.8593 25.331 14.1401 25.1718 14.4491 25.1182C14.5334 25.1108 14.6181 25.1108 14.7024 25.1182C15.0601 25.1258 15.4003 25.2748 15.6485 25.5325C15.8967 25.7902 16.0328 26.1357 16.0269 26.4934C16.0269 27.1087 15.9545 41.693 29.2361 43.9295" fill="url(#paint0_linear_107_560)"/>
<defs>
<linearGradient id="paint0_linear_107_560" x1="0.660153" y1="20.4191" x2="45.7739" y2="20.4191" gradientUnits="userSpaceOnUse">
<stop stop-color="#66529C"/>
<stop offset="1" stop-color="#88BAD2"/>
</linearGradient>
</defs>
</svg>
