<svg xmlns="http://www.w3.org/2000/svg" xmlns:xlink="http://www.w3.org/1999/xlink" viewBox="0 0 41.05 46.8"><defs><style>.cls-1{fill:url(#Degradado_sin_nombre_6);}</style><linearGradient id="Degradado_sin_nombre_6" y1="23.4" x2="41.05" y2="23.4" gradientUnits="userSpaceOnUse"><stop offset="0" stop-color="#65529b"/><stop offset="1" stop-color="#86b8d0"/></linearGradient></defs><g id="Capa_2" data-name="Capa 2"><g id="Capa_1-2" data-name="Capa 1"><path class="cls-1" d="M14.2,46.8c-1-.15-2.09-.24-3.1-.47A14.43,14.43,0,0,1,12.23,18a13.07,13.07,0,0,1,4.57,0V25.7c-.39-.07-.76-.16-1.13-.21a6.9,6.9,0,1,0,5.74,8.17,9.54,9.54,0,0,0,.14-1.77q0-15.6,0-31.21c0-.22,0-.45,0-.68h7.58A11.77,11.77,0,0,0,40.61,11.71c.39,0,.44.17.44.49q0,3.32,0,6.63v.49a19.48,19.48,0,0,1-11.84-4v.57q0,8,0,16a18.53,18.53,0,0,1-.13,2.23A14.49,14.49,0,0,1,17.73,46.43c-.86.17-1.74.25-2.61.37Z"/></g></g></svg>